<svg width="465" height="303" viewBox="0 0 465 303" fill="none" xmlns="http://www.w3.org/2000/svg">
<path opacity="0.0654018" d="M72.6 0.399988C91.1333 0.399988 107.067 6.26666 120.4 18L102.2 37C97.1333 33.4 92.5333 30.8 88.4 29.2C84.4 27.4667 79.8 26.6 74.6 26.6C64.6 26.6 56.7333 30.4667 51 38.2C45.4 45.9333 42.6 57.7333 42.6 73.6C42.6 85.2 43.5333 94.4 45.4 101.2C47.2667 107.867 50.0667 112.667 53.8 115.6C57.6667 118.533 62.6 120 68.6 120C74.6 120 80.0667 118.733 85 116.2V87.6H69.2L65.6 62.2H120.8V131.4C113.6 136.2 105.467 139.933 96.4 142.6C87.3333 145.267 78.4 146.6 69.6 146.6C26.1333 146.6 4.4 122.2 4.4 73.4C4.4 58.2 7.33333 45.1333 13.2 34.2C19.2 23.1333 27.3333 14.7333 37.6 9C47.8667 3.26666 59.5333 0.399988 72.6 0.399988ZM197.883 0.399988C218.016 0.399988 233.683 6.79999 244.883 19.6C256.083 32.4 261.683 50.3333 261.683 73.4C261.683 88.4667 259.149 101.533 254.083 112.6C249.149 123.533 241.883 131.933 232.283 137.8C222.683 143.667 211.216 146.6 197.883 146.6C177.749 146.6 162.083 140.2 150.883 127.4C139.816 114.6 134.283 96.6 134.283 73.4C134.283 58.3333 136.749 45.3333 141.683 34.4C146.749 23.4667 154.016 15.0667 163.483 9.19999C173.083 3.33332 184.549 0.399988 197.883 0.399988ZM197.883 27C189.216 27 182.816 30.6 178.683 37.8C174.683 45 172.683 56.8667 172.683 73.4C172.683 89.9333 174.749 101.867 178.883 109.2C183.016 116.4 189.349 120 197.883 120C206.683 120 213.083 116.4 217.083 109.2C221.083 102 223.083 90.0667 223.083 73.4C223.083 56.8667 221.083 45 217.083 37.8C213.083 30.6 206.683 27 197.883 27ZM57.8 156.4C68.3333 156.4 77.6 157.933 85.6 161C93.7333 164.067 101 168.667 107.4 174.8L90.8 194.4C81.2 186.8 71.1333 183 60.6 183C55.1333 183 50.9333 184.067 48 186.2C45.2 188.2 43.8 191.067 43.8 194.8C43.8 197.467 44.5333 199.667 46 201.4C47.4667 203.133 49.9333 204.8 53.4 206.4C56.8667 208 62.3333 210 69.8 212.4C84.0667 216.933 94.4667 222.667 101 229.6C107.667 236.4 111 245.867 111 258C111 266.8 108.733 274.6 104.2 281.4C99.6667 288.067 93.0667 293.267 84.4 297C75.8667 300.733 65.8 302.6 54.2 302.6C32.0667 302.6 14 295.867 7.07805e-08 282.4L18.2 262.2C29.2667 271.267 40.8 275.8 52.8 275.8C59.0667 275.8 63.9333 274.467 67.4 271.8C70.8667 269 72.6 265.333 72.6 260.8C72.6 257.6 71.9333 255 70.6 253C69.2667 250.867 66.8667 249 63.4 247.4C60.0667 245.667 55.1333 243.8 48.6 241.8C32.8667 236.867 21.8 230.933 15.4 224C9 217.067 5.8 208.333 5.8 197.8C5.8 189.533 8 182.267 12.4 176C16.9333 169.733 23.1333 164.933 31 161.6C39 158.133 47.9333 156.4 57.8 156.4ZM235.816 252.4C235.816 262 233.682 270.6 229.416 278.2C225.282 285.8 219.016 291.8 210.616 296.2C202.216 300.467 191.949 302.6 179.816 302.6C161.416 302.6 147.482 298.133 138.016 289.2C128.549 280.133 123.816 267.867 123.816 252.4V160H160.816V251.2C160.816 259.6 162.282 265.8 165.216 269.8C168.282 273.667 173.149 275.6 179.816 275.6C186.482 275.6 191.282 273.6 194.216 269.6C197.149 265.6 198.616 259.467 198.616 251.2V160H235.816V252.4ZM302.508 247.8H292.308V299H255.308V160H303.508C323.108 160 337.708 163.533 347.308 170.6C357.041 177.667 361.908 188.533 361.908 203.2C361.908 212 359.841 219.333 355.708 225.2C351.708 231.067 345.241 236.333 336.308 241L370.908 299H329.708L302.508 247.8ZM292.308 222.6H304.708C317.508 222.6 323.908 216.133 323.908 203.2C323.908 197.2 322.108 192.8 318.508 190C315.041 187.2 309.774 185.8 302.708 185.8H292.308V222.6ZM379.331 299V160H464.731L460.931 186.2H416.331V219.6H455.531V245.8H416.331V299H379.331Z" fill="white"/>
</svg>
