<svg width="11" height="14" viewBox="0 0 11 14" fill="none" xmlns="http://www.w3.org/2000/svg">
<path fill-rule="evenodd" clip-rule="evenodd" d="M5.43369 0.2948C6.65893 0.2948 7.84853 0.708526 8.78649 1.45986V1.45983C10.0117 2.44068 10.7324 3.83532 10.8195 5.38588C10.903 6.91674 10.3309 8.4145 9.25056 9.49486L5.66928 13.0293C5.53055 13.1668 5.28994 13.1656 5.15121 13.0281L1.62052 9.4974C0.537713 8.41459 -0.0356164 6.91561 0.049093 5.38591C0.135019 3.83542 0.856902 2.44077 2.08089 1.45986C3.01762 0.708526 4.20848 0.2948 5.43369 0.2948ZM3.02745 5.68442C3.02745 7.01153 4.10655 8.09066 5.43369 8.09066C6.76079 8.09066 7.84115 7.01156 7.83992 5.68442C7.83992 4.35732 6.76082 3.27819 5.43369 3.27819C4.10658 3.27819 3.02745 4.35729 3.02745 5.68442Z" fill="white"/>
<path d="M5.43369 4.5116C4.7867 4.5116 4.26125 5.03705 4.26125 5.68404C4.26125 6.33103 4.7867 6.85648 5.43369 6.85648C6.08068 6.85648 6.60613 6.33103 6.60613 5.68404C6.60613 5.03705 6.08068 4.5116 5.43369 4.5116Z" fill="white"/>
</svg>
