<svg width="455" height="147" viewBox="0 0 455 147" fill="none" xmlns="http://www.w3.org/2000/svg">
<path opacity="0.02" d="M9.8 0.399988C20.3333 0.399988 29.6 1.93332 37.6 4.99999C45.7333 8.06666 53 12.6667 59.4 18.8L42.8 38.4C33.2 30.8 23.1333 27 12.6 27C7.13334 27 2.93334 28.0667 9.53674e-07 30.2C-2.8 32.2 -4.2 35.0667 -4.2 38.8C-4.2 41.4667 -3.46666 43.6667 -2 45.4C-0.533331 47.1333 1.93334 48.8 5.4 50.4C8.86667 52 14.3333 54 21.8 56.4C36.0667 60.9333 46.4667 66.6667 53 73.6C59.6667 80.4 63 89.8667 63 102C63 110.8 60.7333 118.6 56.2 125.4C51.6667 132.067 45.0667 137.267 36.4 141C27.8667 144.733 17.8 146.6 6.2 146.6C-15.9333 146.6 -34 139.867 -48 126.4L-29.8 106.2C-18.7333 115.267 -7.2 119.8 4.8 119.8C11.0667 119.8 15.9333 118.467 19.4 115.8C22.8667 113 24.6 109.333 24.6 104.8C24.6 101.6 23.9333 99 22.6 97C21.2667 94.8667 18.8667 93 15.4 91.4C12.0667 89.6667 7.13334 87.8 0.600002 85.8C-15.1333 80.8667 -26.2 74.9333 -32.6 68C-39 61.0667 -42.2 52.3333 -42.2 41.8C-42.2 33.5333 -40 26.2667 -35.6 20C-31.0667 13.7333 -24.8667 8.93332 -17 5.59999C-9 2.13332 -0.0666649 0.399988 9.8 0.399988ZM151.616 143V85.2H114.816V143H77.8156V3.99999H114.816V56.6H151.616V3.99999H188.616V143H151.616ZM268.242 0.399988C288.376 0.399988 304.042 6.79999 315.242 19.6C326.442 32.4 332.042 50.3333 332.042 73.4C332.042 88.4667 329.509 101.533 324.442 112.6C319.509 123.533 312.242 131.933 302.642 137.8C293.042 143.667 281.576 146.6 268.242 146.6C248.109 146.6 232.442 140.2 221.242 127.4C210.176 114.6 204.642 96.6 204.642 73.4C204.642 58.3333 207.109 45.3333 212.042 34.4C217.109 23.4667 224.376 15.0667 233.842 9.19999C243.442 3.33332 254.909 0.399988 268.242 0.399988ZM268.242 27C259.576 27 253.176 30.6 249.042 37.8C245.042 45 243.042 56.8667 243.042 73.4C243.042 89.9333 245.109 101.867 249.242 109.2C253.376 116.4 259.709 120 268.242 120C277.042 120 283.442 116.4 287.442 109.2C291.442 102 293.442 90.0667 293.442 73.4C293.442 56.8667 291.442 45 287.442 37.8C283.442 30.6 277.042 27 268.242 27ZM395.728 3.99999C414.395 3.99999 428.861 7.93332 439.128 15.8C449.528 23.5333 454.728 34.9333 454.728 50C454.728 65.7333 449.728 77.7333 439.728 86C429.728 94.1333 416.261 98.2 399.328 98.2H385.128V143H348.128V3.99999H395.728ZM395.928 71.8C402.861 71.8 408.061 70.0667 411.528 66.6C415.128 63.1333 416.928 57.6667 416.928 50.2C416.928 36.7333 409.661 30 395.128 30H385.128V71.8H395.928Z" fill="white"/>
</svg>
