<svg width="40" height="25" viewBox="0 0 40 25" fill="none" xmlns="http://www.w3.org/2000/svg">
<path d="M26.3579 4.75399C26.446 4.6742 26.5341 4.59608 26.6205 4.51795C26.7951 4.36336 26.9646 4.20545 27.1308 4.04919C27.2921 3.88296 27.4832 3.77325 27.6511 3.63196C27.824 3.49732 27.9902 3.3577 28.1598 3.23303C28.5105 3.00863 28.8363 2.76094 29.1671 2.57145C29.4979 2.38695 29.8054 2.18415 30.1113 2.04618C30.2625 1.96805 30.4071 1.89325 30.5451 1.82178C30.6881 1.75861 30.8244 1.69711 30.954 1.64059C31.4743 1.39957 31.9048 1.25329 32.2007 1.14523C32.4982 1.04882 32.6578 0.998956 32.6578 0.998956L32.6728 0.99397C32.7259 0.977347 32.7708 0.934127 32.7891 0.877613C32.819 0.782864 32.7658 0.681468 32.6728 0.651549C32.6728 0.651549 32.4932 0.595034 32.1641 0.535191C31.9996 0.508596 31.7918 0.468702 31.5508 0.45374C31.3081 0.433793 31.0255 0.403872 30.7113 0.413847C30.5534 0.415509 30.3855 0.412184 30.211 0.422158C30.0364 0.437118 29.8536 0.45374 29.6641 0.472026C29.2784 0.498622 28.8745 0.58672 28.434 0.676481C28.2096 0.71305 27.9919 0.782864 27.7642 0.852677C27.5348 0.924154 27.2987 0.99729 27.0577 1.07209C26.5956 1.26657 26.0903 1.45939 25.5982 1.722C25.3556 1.85831 25.1062 1.9996 24.8552 2.15086C24.7289 2.22566 24.6026 2.30212 24.4746 2.37858C24.3549 2.46668 24.2335 2.55478 24.1122 2.64288C23.8712 2.82738 23.6252 3.01355 23.3742 3.20305C23.1149 3.38589 22.9087 3.62359 22.6711 3.84135C22.44 4.06741 22.2056 4.29513 21.9696 4.5262C21.7585 4.77719 21.5474 5.03317 21.3396 5.29747C21.1352 5.56343 20.9124 5.82607 20.7229 6.10862C20.5417 6.39619 20.3705 6.69373 20.1927 6.99126C20.0248 7.29545 19.837 7.58632 19.6874 7.90879C19.5411 8.23792 19.4048 8.57369 19.2668 8.91113C19.1288 9.2469 18.9909 9.58598 18.8629 9.92675C18.7748 10.2426 18.685 10.5617 18.5953 10.8809C18.5055 11.2 18.4157 11.5208 18.326 11.8416L18.1747 12.3702L18.0567 12.8074C18.0152 12.9537 17.9819 13.1016 17.9354 13.2462L17.7775 13.6701L17.6195 14.0973C17.5647 14.2385 17.4949 14.3715 17.4334 14.5112C16.928 15.6132 16.2598 16.6405 15.4586 17.548C14.6558 18.454 13.7432 19.2568 12.7658 19.9284C11.7901 20.6049 10.7578 21.1485 9.74388 21.6056C8.7266 22.0594 7.7226 22.4118 6.77677 22.6877C4.8835 23.2446 3.23456 23.5006 2.08103 23.6501C0.922433 23.7947 0.257539 23.8047 0.257539 23.8047C0.172765 23.8064 0.0996285 23.8695 0.0879902 23.956C0.0763549 24.0507 0.142846 24.1388 0.239254 24.1505H0.242578C0.242578 24.1505 0.922451 24.2369 2.11258 24.2618C2.70764 24.2751 3.43241 24.2685 4.26517 24.217C5.09628 24.1654 6.03713 24.0823 7.05607 23.9111C9.0873 23.5687 11.4778 22.9487 13.8314 21.6688C15.0049 21.0321 16.1685 20.2326 17.2057 19.2352C18.2463 18.2462 19.1688 17.076 19.9002 15.7911C19.9916 15.6298 20.0914 15.4736 20.1761 15.309L20.4205 14.8137C20.585 14.4829 20.7446 14.1488 20.8776 13.808L21.087 13.2977L21.1386 13.1697L21.1651 13.1065L21.1718 13.0899C21.1934 13.0251 21.1485 13.1597 21.1552 13.1414L21.1668 13.1132L21.2649 12.8821C21.3979 12.5763 21.5292 12.2704 21.6605 11.9663C21.7918 11.6621 21.9231 11.3595 22.0544 11.057C22.2024 10.8044 22.3387 10.5517 22.4733 10.3007C22.608 10.0497 22.7443 9.80205 22.8656 9.54941C23.0036 9.30174 23.1681 9.06239 23.3128 8.81971C23.4574 8.57536 23.602 8.33435 23.7366 8.09001C23.8862 7.8573 24.0508 7.6412 24.2004 7.41682C24.3566 7.19574 24.4963 6.96635 24.6475 6.74861C24.8121 6.54415 24.9733 6.34136 25.1329 6.14188C25.2127 6.04049 25.2908 5.94075 25.3706 5.84102C25.4471 5.73796 25.5252 5.63823 25.6133 5.55345C25.7845 5.37227 25.9524 5.19441 26.1186 5.01822C26.1967 4.93178 26.2782 4.84202 26.358 4.75392L26.3579 4.75399Z" fill="#4AF6CD"/>
<path fill-rule="evenodd" clip-rule="evenodd" d="M38.8297 23.451C39.4664 23.7352 39.8371 23.8732 39.8371 23.8732L39.8372 23.8732C39.9003 23.8964 39.9336 23.9663 39.9086 24.0261C39.887 24.081 39.8288 24.1125 39.7707 24.1026C39.7707 24.1026 39.3734 24.0261 38.6902 23.8516C38.0053 23.6803 37.0396 23.3861 35.8993 22.9589C35.809 22.9233 35.7172 22.8878 35.6242 22.8517C35.426 22.7749 35.222 22.6958 35.015 22.6099C34.8728 22.5473 34.7284 22.4845 34.5819 22.4207C34.4168 22.3488 34.2492 22.2758 34.0792 22.2009C33.9574 22.1407 33.8342 22.08 33.7097 22.0187C33.5114 21.9209 33.31 21.8217 33.1068 21.7206C32.8638 21.5847 32.617 21.4461 32.3666 21.3054C32.2829 21.2584 32.1989 21.2111 32.1144 21.1637C32.0087 21.0965 31.9027 21.0289 31.7962 20.961C31.5711 20.8175 31.3439 20.6727 31.1137 20.5271C30.8779 20.3603 30.6455 20.1842 30.4103 20.006C30.3173 19.9355 30.2239 19.8647 30.1297 19.794C29.9626 19.6482 29.7951 19.5009 29.6271 19.3533C29.4792 19.2233 29.3309 19.0929 29.1822 18.9629C29.0936 18.8692 29.0042 18.7757 28.9145 18.682C28.7083 18.4662 28.5007 18.249 28.2979 18.0254L27.894 17.5085L27.6928 17.2492L27.5898 17.1195L27.5649 17.0879L27.5516 17.0713C27.5492 17.0672 27.5485 17.0659 27.5485 17.066C27.5487 17.0662 27.5663 17.0974 27.5183 17.0165L27.5133 17.0081L27.4718 16.945L27.146 16.4446C27.1126 16.3908 27.079 16.3411 27.0453 16.2913C26.9699 16.1798 26.8943 16.068 26.8218 15.9094C26.7727 15.8075 26.7208 15.7055 26.6688 15.6031C26.5077 15.2861 26.345 14.9661 26.2583 14.6394C26.2441 14.5957 26.2296 14.552 26.2152 14.5083C26.1588 14.338 26.1025 14.1678 26.0589 13.9945C26.0435 13.8993 26.0284 13.8044 26.0133 13.7097C25.9926 13.5797 25.972 13.4502 25.9508 13.3213C25.9463 13.2773 25.9405 13.2339 25.9347 13.1905C25.9257 13.1224 25.9167 13.0546 25.9126 12.9855L25.9159 12.6431C25.9188 12.5783 25.9203 12.5138 25.9217 12.4495C25.9255 12.2878 25.9292 12.1276 25.9542 11.9683C25.9823 11.7954 26.0184 11.6255 26.054 11.4578C26.0646 11.4078 26.0752 11.358 26.0855 11.3084C26.111 11.1642 26.1675 11.0245 26.2231 10.8873C26.2508 10.8188 26.2783 10.7509 26.3016 10.6833L26.4212 10.3841C26.4499 10.3201 26.4874 10.2583 26.5244 10.1973C26.5432 10.1664 26.5618 10.1356 26.5791 10.1049C26.6133 10.0501 26.6461 9.99525 26.6786 9.94081C26.7537 9.81503 26.8274 9.69163 26.9133 9.57795C26.924 9.56533 26.9347 9.55273 26.9454 9.54015C27.2011 9.23977 27.4444 8.95406 27.7427 8.74186C27.959 8.54627 28.2107 8.41327 28.4481 8.28778C28.5153 8.25223 28.5815 8.21729 28.6453 8.18169C28.758 8.13147 28.8734 8.09299 28.9855 8.05559C29.0255 8.04224 29.0651 8.02903 29.1041 8.01547C29.119 8.01044 29.1338 8.0054 29.1486 8.00038C29.2802 7.95558 29.4067 7.91257 29.5412 7.89911C30.113 7.78442 30.6183 7.816 31.0056 7.89413C31.2018 7.93568 31.3697 7.98223 31.5126 8.02378C31.6539 8.08528 31.7703 8.13848 31.8617 8.18502C32.0445 8.27645 32.136 8.32797 32.136 8.32797C32.1958 8.36288 32.2157 8.43934 32.1808 8.49918C32.1609 8.53409 32.1276 8.5557 32.0911 8.56068L32.0745 8.56401C32.0745 8.56401 31.9731 8.57897 31.7836 8.60723C31.7084 8.62088 31.6199 8.63117 31.5206 8.64271C31.499 8.64521 31.477 8.64777 31.4544 8.65044C31.412 8.66217 31.3675 8.67521 31.3213 8.68874C31.23 8.71549 31.1321 8.74418 31.0306 8.76846C30.9246 8.78556 30.8155 8.83626 30.7032 8.88842C30.6517 8.91232 30.5996 8.93653 30.5469 8.95795C30.4314 8.99349 30.3211 9.06315 30.2086 9.13422C30.1526 9.16954 30.0962 9.2052 30.0382 9.23721C29.9217 9.30668 29.8127 9.39956 29.7031 9.49295C29.6502 9.5381 29.597 9.58337 29.5429 9.62617C29.4939 9.68484 29.4416 9.73961 29.3892 9.79442C29.2888 9.89954 29.1883 10.0048 29.1107 10.1381C28.8347 10.4989 28.6453 10.951 28.5389 11.4413C28.5315 11.4877 28.5202 11.5326 28.5088 11.5774C28.4892 11.6546 28.4697 11.7318 28.4707 11.817C28.4685 11.8467 28.4664 11.8766 28.4643 11.9064C28.4571 12.0085 28.45 12.111 28.4358 12.2126C28.4294 12.2859 28.4336 12.3628 28.4378 12.4401C28.4412 12.503 28.4447 12.5662 28.4425 12.6282C28.4425 12.6456 28.4426 12.663 28.4427 12.6805C28.443 12.7329 28.4433 12.7856 28.4408 12.8393C28.4431 12.8889 28.451 12.9394 28.459 12.9902C28.4625 13.0124 28.466 13.0347 28.4691 13.057C28.4769 13.1343 28.4842 13.212 28.4916 13.29C28.4984 13.3612 28.5051 13.4327 28.5123 13.5042C28.5488 13.6554 28.5821 13.81 28.612 13.9662C28.6419 14.1756 28.7 14.365 28.7588 14.5571C28.7915 14.6639 28.8245 14.7715 28.853 14.8838C28.8697 14.9859 28.9304 15.1168 28.9909 15.2475C29.0152 15.2998 29.0394 15.352 29.0608 15.4024L29.3068 15.9459L29.3367 16.0141L29.3401 16.0191L29.3434 16.0257L29.4115 16.1421L29.5512 16.3715L29.8321 16.8369C29.9587 17.0019 30.0847 17.167 30.2105 17.3317C30.3077 17.459 30.4049 17.5861 30.502 17.7129L31.2599 18.5308C31.5326 18.7851 31.8035 19.0377 32.0728 19.2871C32.1668 19.3651 32.2605 19.4431 32.3538 19.5207C32.5425 19.6776 32.7298 19.8333 32.9155 19.9868C33.2064 20.2029 33.494 20.4157 33.7749 20.6235C34.0658 20.8213 34.3517 21.0141 34.6293 21.2003C34.9152 21.3782 35.1928 21.551 35.462 21.7189C35.6349 21.8222 35.8063 21.9194 35.9739 22.0145C36.0707 22.0694 36.1662 22.1235 36.2599 22.1777C36.7769 22.4636 37.2606 22.7129 37.6944 22.9224C38.13 23.1335 38.5123 23.3097 38.8297 23.451ZM29.32 15.9845C29.3197 15.984 29.3192 15.9834 29.3183 15.9825L29.3267 15.9975L29.33 16.0008C29.3267 15.9958 29.3217 15.9875 29.32 15.9842C29.32 15.9843 29.32 15.9844 29.32 15.9845Z" fill="#4AF6CD"/>
<path d="M31.4876 2.85237C30.7064 3.0136 30.2127 3.21806 30.2127 3.21806C30.1811 3.23136 30.1562 3.26294 30.1562 3.29951C30.1545 3.34771 30.1944 3.38761 30.2426 3.38761C30.2443 3.38761 30.7595 3.39093 31.5192 3.47903C31.8982 3.5156 32.3337 3.59206 32.7925 3.67185C33.2496 3.77491 33.7333 3.86799 34.1971 4.01427C34.3134 4.05416 34.4298 4.08574 34.5428 4.12896C34.6542 4.17883 34.7639 4.22703 34.8736 4.27524C35.093 4.36999 35.2991 4.47471 35.5069 4.54618C35.718 4.60935 35.9225 4.6642 36.1236 4.70077C36.3297 4.73401 36.5259 4.7656 36.7071 4.79385C36.8916 4.82211 37.0711 4.83209 37.234 4.8404C37.3919 4.85702 37.5382 4.867 37.6628 4.867C37.9138 4.87198 38.0801 4.8537 38.0801 4.8537L38.0867 4.85204C38.095 4.85037 38.1017 4.84871 38.11 4.84705C38.1665 4.8271 38.1948 4.76394 38.1748 4.70742C38.1748 4.70742 38.12 4.55616 37.9853 4.33342C37.9188 4.21872 37.8291 4.09073 37.7177 3.94778C37.6047 3.80981 37.4634 3.67351 37.3021 3.53222C37.2223 3.45908 37.1343 3.38927 37.0428 3.31946C36.9464 3.25962 36.85 3.19147 36.7436 3.13329C36.5375 3.0053 36.3065 2.8906 36.0538 2.82245C35.8028 2.74598 35.5335 2.70609 35.2576 2.69446C34.9833 2.66952 34.7074 2.65789 34.4331 2.64459C34.1605 2.61966 33.8879 2.62298 33.622 2.61799C33.356 2.61134 33.0934 2.63794 32.8424 2.65124C32.5897 2.68116 32.3504 2.69445 32.1226 2.73601C31.8966 2.77424 31.6838 2.81081 31.4877 2.85237L31.4876 2.85237Z" fill="#4AF6CD"/>
<path d="M37.1093 9.00251C37.2756 9.07731 37.4052 9.16042 37.5349 9.22027C37.7726 9.35324 37.9388 9.43303 37.9388 9.43303L37.9488 9.43802C37.9621 9.44467 37.977 9.44799 37.9937 9.44799C38.0468 9.44633 38.0901 9.40145 38.0901 9.3466C38.0901 9.3466 38.0884 9.30171 38.0867 9.2186C38.0817 9.13549 38.0768 9.01083 38.0435 8.85956C38.0069 8.71162 37.9621 8.52379 37.8706 8.33097C37.7892 8.12817 37.6662 7.9204 37.5133 7.70594C37.4351 7.60123 37.347 7.49484 37.2556 7.38846C37.1575 7.29039 37.0595 7.18068 36.9481 7.08427C36.7287 6.88647 36.476 6.70362 36.1951 6.559C35.9142 6.41604 35.605 6.31132 35.2909 6.2332C34.9767 6.14843 34.6592 6.08194 34.3467 6.0088C33.7217 5.86419 33.0967 5.76279 32.5099 5.71625C31.9248 5.66139 31.3779 5.65142 30.9109 5.65641C29.9784 5.66804 29.365 5.76113 29.365 5.76113C29.3284 5.76611 29.2985 5.79437 29.2902 5.83094C29.2819 5.87914 29.3118 5.92569 29.36 5.934C29.36 5.934 29.9601 6.04869 30.8361 6.27974C31.2732 6.39278 31.7769 6.54071 32.3055 6.71523C32.5698 6.80001 32.8374 6.90307 33.11 6.99948C33.3793 7.09921 33.6502 7.20892 33.9129 7.32694C34.1755 7.44662 34.4298 7.58292 34.6642 7.73252C34.9019 7.88046 35.1229 8.03172 35.3457 8.15473C35.5685 8.27607 35.7829 8.38246 35.9973 8.47554C36.2084 8.57361 36.4079 8.6667 36.5924 8.75313C36.7818 8.84289 36.9564 8.92767 37.1093 9.00247L37.1093 9.00251Z" fill="#4AF6CD"/>
<path d="M36.1817 11.0889C36.1185 10.9576 36.0287 10.8346 35.929 10.7033C35.8309 10.5703 35.7046 10.4639 35.565 10.3625C35.4254 10.2628 35.2558 10.2029 35.0879 10.1381C34.9184 10.0816 34.7472 10.0267 34.5826 9.96524C34.2501 9.85387 33.9194 9.74749 33.6019 9.69097C33.2877 9.62116 32.9885 9.58958 32.7358 9.56298C32.2305 9.51145 31.8881 9.53306 31.8881 9.53306C31.8631 9.53472 31.8399 9.54968 31.8266 9.57462C31.81 9.61119 31.8249 9.6544 31.8615 9.67102C31.8615 9.67102 32.1624 9.81231 32.5946 10.0384C32.809 10.1564 33.0533 10.2977 33.3093 10.4523C33.434 10.5321 33.5636 10.6135 33.6933 10.695C33.8246 10.7747 33.9493 10.8678 34.0756 10.9543C34.197 11.0474 34.3133 11.1488 34.4197 11.2535C34.5194 11.3648 34.6275 11.4612 34.7305 11.5444C34.8319 11.6275 34.9549 11.6823 35.0646 11.7388C35.1727 11.797 35.2907 11.8386 35.3987 11.8818C35.5018 11.9267 35.6082 11.9632 35.7112 11.9932C35.8143 12.0231 35.8958 12.058 35.9772 12.0796C36.1368 12.1278 36.2531 12.1478 36.2531 12.1478L36.2581 12.1494C36.3097 12.1594 36.3595 12.1245 36.3695 12.073C36.3695 12.073 36.3894 11.9632 36.3778 11.7821C36.3712 11.6923 36.3612 11.5776 36.3279 11.4629C36.293 11.3482 36.2465 11.2219 36.1817 11.0889H36.1817Z" fill="#4AF6CD"/>
</svg>
