<svg width="417" height="147" viewBox="0 0 417 147" fill="none" xmlns="http://www.w3.org/2000/svg">
<path opacity="0.02" d="M9.8 0.399988C20.3333 0.399988 29.6 1.93332 37.6 4.99999C45.7333 8.06666 53 12.6667 59.4 18.8L42.8 38.4C33.2 30.8 23.1333 27 12.6 27C7.13334 27 2.93334 28.0667 9.53674e-07 30.2C-2.8 32.2 -4.2 35.0667 -4.2 38.8C-4.2 41.4667 -3.46666 43.6667 -2 45.4C-0.533331 47.1333 1.93334 48.8 5.4 50.4C8.86667 52 14.3333 54 21.8 56.4C36.0667 60.9333 46.4667 66.6667 53 73.6C59.6667 80.4 63 89.8667 63 102C63 110.8 60.7333 118.6 56.2 125.4C51.6667 132.067 45.0667 137.267 36.4 141C27.8667 144.733 17.8 146.6 6.2 146.6C-15.9333 146.6 -34 139.867 -48 126.4L-29.8 106.2C-18.7333 115.267 -7.2 119.8 4.8 119.8C11.0667 119.8 15.9333 118.467 19.4 115.8C22.8667 113 24.6 109.333 24.6 104.8C24.6 101.6 23.9333 99 22.6 97C21.2667 94.8667 18.8667 93 15.4 91.4C12.0667 89.6667 7.13334 87.8 0.600002 85.8C-15.1333 80.8667 -26.2 74.9333 -32.6 68C-39 61.0667 -42.2 52.3333 -42.2 41.8C-42.2 33.5333 -40 26.2667 -35.6 20C-31.0667 13.7333 -24.8667 8.93332 -17 5.59999C-9 2.13332 -0.0666649 0.399988 9.8 0.399988ZM187.816 96.4C187.816 106 185.682 114.6 181.416 122.2C177.282 129.8 171.016 135.8 162.616 140.2C154.216 144.467 143.949 146.6 131.816 146.6C113.416 146.6 99.4823 142.133 90.0156 133.2C80.549 124.133 75.8156 111.867 75.8156 96.4V3.99999H112.816V95.2C112.816 103.6 114.282 109.8 117.216 113.8C120.282 117.667 125.149 119.6 131.816 119.6C138.482 119.6 143.282 117.6 146.216 113.6C149.149 109.6 150.616 103.467 150.616 95.2V3.99999H187.816V96.4ZM254.508 91.8H244.308V143H207.308V3.99999H255.508C275.108 3.99999 289.708 7.53333 299.308 14.6C309.041 21.6667 313.908 32.5333 313.908 47.2C313.908 56 311.841 63.3333 307.708 69.2C303.708 75.0667 297.241 80.3333 288.308 85L322.908 143H281.708L254.508 91.8ZM244.308 66.6H256.708C269.508 66.6 275.908 60.1333 275.908 47.2C275.908 41.2 274.108 36.8 270.508 34C267.041 31.2 261.774 29.8 254.708 29.8H244.308V66.6ZM331.331 143V3.99999H416.731L412.931 30.2H368.331V63.6H407.531V89.8H368.331V143H331.331Z" fill="white"/>
</svg>
