<svg width="55" height="47" viewBox="0 0 55 47" fill="none" xmlns="http://www.w3.org/2000/svg">
<path fill-rule="evenodd" clip-rule="evenodd" d="M54.5976 42.8611C54.5882 42.8896 54.5764 42.9181 54.5623 42.9442L54.5628 42.9438C54.5487 42.9723 54.5345 42.9984 54.5063 43.0174C54.4954 43.0348 54.4844 43.05 54.4734 43.0653C54.4679 43.073 54.4624 43.0806 54.4569 43.0886C54.4381 43.1123 54.417 43.1384 54.3958 43.1621C54.377 43.1811 54.3582 43.2001 54.337 43.2191C54.3135 43.2428 54.2876 43.2642 54.2618 43.2832C54.2509 43.2904 54.2389 43.2983 54.2266 43.3062C54.2148 43.3137 54.2027 43.3213 54.1912 43.3282C54.1842 43.3318 54.1773 43.3355 54.1704 43.3393C54.1656 43.3419 54.1608 43.3446 54.156 43.3473C54.1402 43.3562 54.1241 43.3651 54.1065 43.3733C54.097 43.3781 54.0873 43.3824 54.0773 43.3864C54.0665 43.3907 54.0555 43.3947 54.0444 43.3988C54.0354 43.4021 54.0263 43.4054 54.0172 43.4089C54.0109 43.4113 54.0049 43.414 53.9989 43.4166C53.9932 43.4191 53.9875 43.4216 53.9815 43.4239C53.975 43.4264 53.9681 43.4286 53.9607 43.4303C53.956 43.4315 53.9519 43.4315 53.9478 43.4315H53.9465C53.9428 43.4315 53.9391 43.4316 53.9349 43.4327C53.862 43.4517 53.7867 43.4635 53.7091 43.4635C53.6033 43.4635 53.5656 43.4801 53.5656 43.4801C53.5224 43.5307 53.4438 43.7838 53.394 43.9441L53.3893 43.9595C53.2058 44.5529 52.8225 45.7869 51.2727 45.7869C49.9471 45.7869 49.2886 44.8987 48.8068 44.2489L48.8034 44.2443C48.3518 43.6296 48.1802 43.4635 47.8415 43.4635C47.5029 43.4635 47.3335 43.6296 46.8796 44.2419L46.8763 44.2464C46.3945 44.8963 45.7359 45.7845 44.408 45.7845C43.0823 45.7845 42.4238 44.8963 41.942 44.2464L41.9386 44.2419C41.4871 43.6296 41.3154 43.4635 40.9767 43.4635C40.6404 43.4635 40.4688 43.6296 40.0149 44.2443C39.5351 44.8946 38.8742 45.7869 37.5455 45.7869C36.2175 45.7869 35.559 44.8987 35.0772 44.2489L35.0739 44.2443C34.6223 43.632 34.4506 43.4659 34.112 43.4659C33.7733 43.4659 33.604 43.632 33.1501 44.2443C32.6703 44.8946 32.0118 45.7869 30.6808 45.7869C29.3551 45.7869 28.6966 44.8987 28.2148 44.2489L28.2114 44.2443C27.7599 43.632 27.5882 43.4659 27.2496 43.4659C26.9133 43.4659 26.7416 43.6321 26.2877 44.2467C25.8079 44.897 25.1471 45.7894 23.8183 45.7894C22.4927 45.7894 21.8342 44.9012 21.3524 44.2513L21.349 44.2467C20.8975 43.6345 20.7258 43.4683 20.3871 43.4683C20.0508 43.4683 19.8791 43.6345 19.4253 44.2491C18.9455 44.8994 18.2846 45.7918 16.9559 45.7918C16.5349 45.7918 16.1516 45.6185 15.8812 45.3053C15.225 44.5506 15.3567 43.2643 15.6272 41.2281L15.6318 41.1928C15.7284 40.4561 15.8757 39.3325 15.8271 38.786C14.0704 39.1323 11.5775 42.6853 10.2841 45.2698C10.1242 45.5926 9.79729 45.7919 9.44453 45.7919C9.42571 45.7919 9.4069 45.7919 9.38809 45.7895C9.01416 45.7682 8.68727 45.5238 8.56028 45.1678C8.34392 44.5645 6.49547 39.1941 8.41683 36.2228C9.13645 35.1121 10.3029 34.4737 11.7939 34.3764C13.0897 34.291 13.6823 33.9397 13.7952 33.662C13.8705 33.4769 13.7505 33.1613 13.4871 32.8599C12.7863 32.0553 11.22 31.4098 9.43745 31.8987C6.96566 32.5731 4.19536 35.9169 3.26172 39.3534C2.93481 40.5614 2.58201 42.797 3.91782 44.1806C4.27999 44.5579 4.27058 45.1583 3.89901 45.5238C3.52508 45.8893 2.93247 45.8821 2.56796 45.5048C1.09341 43.9789 0.695972 41.6152 1.44617 38.8527C2.41727 35.2738 5.48876 31.0091 8.9458 30.0669C11.5209 29.3645 13.7903 30.3327 14.9003 31.6072C15.6694 32.4876 15.8998 33.501 15.5353 34.3886C15.2179 35.16 14.3336 36.114 11.916 36.273C11.0153 36.3324 10.3874 36.6575 9.99467 37.2626C9.20215 38.4872 9.38558 40.6587 9.74539 42.3912C11.1565 40.1057 13.6329 36.7856 16.1963 36.8663C16.6102 36.8805 16.9841 37.0609 17.2475 37.3765C17.5109 37.6898 17.6402 38.0956 17.6873 38.5987C19.4181 37.443 21.9442 36.299 26.9298 35.7912C21.5253 13.6963 31.685 1.25815 32.1459 0.709935C32.1499 0.705973 32.1538 0.702837 32.1575 0.699838C32.1628 0.695653 32.1677 0.691733 32.1718 0.686203C32.2 0.655349 32.2282 0.629243 32.2588 0.603138C32.2776 0.584152 32.2964 0.567539 32.3176 0.5533C32.3465 0.533858 32.3754 0.517602 32.4056 0.500617L32.4258 0.489221C32.4446 0.477354 32.4634 0.465488 32.4846 0.455995C32.5293 0.437009 32.5739 0.42277 32.621 0.410903C32.6319 0.409322 32.6429 0.40563 32.6539 0.401939L32.6539 0.401925C32.6594 0.400084 32.6649 0.398243 32.6704 0.396664C32.7339 0.382424 32.7997 0.375305 32.8679 0.375305L33.0067 0.380051C33.2842 0.380051 33.5452 0.501088 33.7239 0.714679C34.1848 1.26026 44.2949 13.6349 38.9871 35.6228C52.8667 36.4438 54.5647 42.0328 54.6305 42.2773C54.6329 42.2868 54.6329 42.2986 54.6352 42.3081L54.6493 42.4007C54.654 42.4339 54.6587 42.4671 54.6587 42.5004C54.6587 42.5027 54.6589 42.505 54.6591 42.5073L54.6599 42.5146C54.6602 42.5172 54.6605 42.5197 54.6608 42.5223C54.661 42.5245 54.6611 42.5266 54.6611 42.5288C54.6611 42.5352 54.6608 42.5412 54.6604 42.5472C54.6597 42.5574 54.6584 42.5672 54.6571 42.5777L54.6564 42.5834L54.6561 42.5868C54.6539 42.6191 54.6514 42.6534 54.6446 42.6855C54.6434 42.6927 54.6421 42.6999 54.6406 42.7071C54.6394 42.7131 54.6381 42.7192 54.6368 42.7253C54.6334 42.7405 54.6296 42.7557 54.6258 42.7709L54.621 42.7874L54.6177 42.799C54.6117 42.8203 54.6058 42.8413 54.5976 42.8611ZM33.8081 38.5465H36.2398C41.5949 20.8735 36.5573 8.95949 33.8081 4.22958V38.5465ZM31.9267 4.47868V38.5465H29.6338C24.3824 21.2173 29.1564 9.37919 31.9267 4.47868ZM51.599 43.42L51.6038 43.4045L51.6031 43.4046C51.7136 43.0486 51.9017 42.4648 52.365 42.0542C51.3235 40.7252 48.0381 37.9959 38.5018 37.4999C38.2949 38.2523 38.0714 39.0141 37.8269 39.7877C37.7022 40.1817 37.3401 40.4498 36.9309 40.4498H28.94C28.5308 40.4498 28.1686 40.1817 28.0439 39.7877C27.8182 39.0663 27.6112 38.3566 27.416 37.6566C21.3696 38.2309 19.206 39.7616 17.5528 41.0527C17.5454 41.1082 17.5385 41.1634 17.5314 41.2191C17.5204 41.3061 17.5092 41.3943 17.4963 41.4869C17.4046 42.1799 17.2635 43.2479 17.2917 43.8175C17.4634 43.7154 17.6375 43.5066 17.9197 43.1221L17.923 43.1176C18.4049 42.4677 19.0634 41.5795 20.3914 41.5795C21.717 41.5795 22.3755 42.4677 22.8573 43.1175L22.8607 43.1221C23.3122 43.7344 23.4839 43.9005 23.8226 43.9005C24.1612 43.9005 24.3306 43.7344 24.7844 43.1221L24.7878 43.1176C25.2696 42.4677 25.9282 41.5795 27.2561 41.5795C28.5818 41.5795 29.2403 42.4677 29.7221 43.1175L29.7255 43.1221C30.1794 43.7344 30.351 43.9005 30.6873 43.9005C31.026 43.9005 31.1953 43.7344 31.6492 43.1221C32.129 42.4719 32.7875 41.5795 34.1185 41.5795C35.4442 41.5795 36.1027 42.4677 36.5845 43.1175L36.5879 43.1221C37.0418 43.7368 37.2135 43.9029 37.5521 43.9029C37.8908 43.9029 38.0601 43.7368 38.514 43.1245L38.5173 43.12C38.9992 42.4701 39.6577 41.5819 40.9857 41.5819C42.3113 41.5819 42.9698 42.4701 43.4516 43.12L43.455 43.1245C43.9065 43.7368 44.0782 43.9029 44.4169 43.9029C44.7555 43.9029 44.9272 43.7368 45.3811 43.1221C45.8609 42.4719 46.5217 41.5795 47.8504 41.5795C49.1784 41.5795 49.8369 42.4677 50.3187 43.1175L50.3221 43.1221C50.776 43.7344 50.9477 43.9005 51.284 43.9005C51.3898 43.9005 51.4274 43.8839 51.4274 43.8839C51.4707 43.8333 51.5492 43.5803 51.599 43.42Z" fill="white"/>
<path d="M54.5623 42.9442L54.1225 42.7064L54.8802 43.3301L54.5623 42.9442ZM54.5976 42.8611L54.1354 42.6703L54.1285 42.6871L54.1228 42.7043L54.5976 42.8611ZM54.5628 42.9438L55.0108 43.1658L54.2449 42.5578L54.5628 42.9438ZM54.5063 43.0174L54.2272 42.6025L54.1397 42.6614L54.0834 42.7507L54.5063 43.0174ZM54.4734 43.0653L54.8796 43.3569L54.8797 43.3568L54.4734 43.0653ZM54.4569 43.0886L54.8488 43.3992L54.8587 43.3867L54.8677 43.3736L54.4569 43.0886ZM54.3958 43.1621L54.751 43.5141L54.7602 43.5047L54.769 43.4949L54.3958 43.1621ZM54.337 43.2191L54.0031 42.8469L53.9922 42.8567L53.9819 42.8671L54.337 43.2191ZM54.2618 43.2832L54.5408 43.698L54.5493 43.6923L54.5576 43.6862L54.2618 43.2832ZM54.2266 43.3062L53.9573 42.8849L53.9573 42.8849L54.2266 43.3062ZM54.1912 43.3282L54.4164 43.7746L54.4337 43.7659L54.4502 43.756L54.1912 43.3282ZM54.1704 43.3393L53.9294 42.9012L53.9293 42.9013L54.1704 43.3393ZM54.156 43.3473L53.9117 42.911L53.9116 42.9111L54.156 43.3473ZM54.1065 43.3733L53.8954 42.9201L53.8883 42.9234L53.8813 42.927L54.1065 43.3733ZM54.0773 43.3864L53.8912 42.9223L53.8911 42.9224L54.0773 43.3864ZM54.0444 43.3988L53.873 42.9291L53.873 42.9291L54.0444 43.3988ZM54.0172 43.4089L54.194 43.8766L54.1981 43.8751L54.0172 43.4089ZM53.9989 43.4166L54.1997 43.8745L54.1999 43.8744L53.9989 43.4166ZM53.9815 43.4239L54.1607 43.8907L54.161 43.8906L53.9815 43.4239ZM53.9607 43.4303L53.8513 42.9422L53.8383 42.9455L53.9607 43.4303ZM53.9465 43.4315L53.9465 42.9315L53.945 42.9315L53.9465 43.4315ZM53.9349 43.4327L53.8128 42.9478L53.8089 42.9488L53.9349 43.4327ZM53.5656 43.4801L53.3637 43.0227L53.2597 43.0687L53.1858 43.155L53.5656 43.4801ZM53.394 43.9441L53.8715 44.0925L53.8716 44.0924L53.394 43.9441ZM53.3893 43.9595L52.9118 43.8112L52.9116 43.8118L53.3893 43.9595ZM48.8068 44.2489L48.405 44.5465L48.4051 44.5467L48.8068 44.2489ZM48.8034 44.2443L48.4004 44.5403L48.4016 44.5419L48.8034 44.2443ZM46.8796 44.2419L47.2813 44.5397L47.2813 44.5396L46.8796 44.2419ZM46.8763 44.2464L46.4747 43.9486L46.4746 43.9486L46.8763 44.2464ZM41.942 44.2464L42.3437 43.9487L42.3436 43.9485L41.942 44.2464ZM41.9386 44.2419L41.5362 44.5386L41.5371 44.5398L41.9386 44.2419ZM40.0149 44.2443L39.6126 43.9473L39.6125 43.9474L40.0149 44.2443ZM35.0772 44.2489L35.4789 43.9511L35.4789 43.9511L35.0772 44.2489ZM35.0739 44.2443L34.6715 44.5411L34.6722 44.5421L35.0739 44.2443ZM33.1501 44.2443L32.7484 43.9465L32.7478 43.9474L33.1501 44.2443ZM28.2148 44.2489L28.6165 43.9511L28.6164 43.951L28.2148 44.2489ZM28.2114 44.2443L27.809 44.5411L27.8098 44.5421L28.2114 44.2443ZM26.2877 44.2467L25.8855 43.9497L25.8853 43.9499L26.2877 44.2467ZM21.3524 44.2513L21.7541 43.9535L21.754 43.9534L21.3524 44.2513ZM21.349 44.2467L20.9466 44.5435L20.9474 44.5446L21.349 44.2467ZM19.4253 44.2491L19.023 43.9521L19.0229 43.9523L19.4253 44.2491ZM15.8812 45.3053L16.2596 44.9785L16.2585 44.9772L15.8812 45.3053ZM15.6272 41.2281L16.1228 41.2939L16.1229 41.293L15.6272 41.2281ZM15.6318 41.1928L15.136 41.1278L15.136 41.1278L15.6318 41.1928ZM15.8271 38.786L16.3251 38.7417L16.2758 38.1879L15.7304 38.2954L15.8271 38.786ZM10.2841 45.2698L9.83694 45.046L9.83604 45.0478L10.2841 45.2698ZM9.38809 45.7895L9.45065 45.2935L9.43366 45.2913L9.41657 45.2903L9.38809 45.7895ZM8.56028 45.1678L9.03121 44.9998L9.03093 44.999L8.56028 45.1678ZM8.41683 36.2228L7.9972 35.9509L7.99696 35.9513L8.41683 36.2228ZM11.7939 34.3764L11.8265 34.8753L11.8268 34.8753L11.7939 34.3764ZM13.7952 33.662L14.2584 33.8503L14.2584 33.8503L13.7952 33.662ZM13.4871 32.8599L13.1101 33.1883L13.1106 33.1889L13.4871 32.8599ZM9.43745 31.8987L9.56906 32.3811L9.5697 32.3809L9.43745 31.8987ZM3.26172 39.3534L2.77921 39.2223L2.77908 39.2228L3.26172 39.3534ZM3.91782 44.1806L4.27856 43.8343L4.27753 43.8333L3.91782 44.1806ZM3.89901 45.5238L4.2485 45.8814L4.24963 45.8803L3.89901 45.5238ZM2.56796 45.5048L2.92757 45.1574L2.92751 45.1573L2.56796 45.5048ZM1.44617 38.8527L1.9287 38.9838L1.92873 38.9837L1.44617 38.8527ZM8.9458 30.0669L9.07727 30.5493L9.07738 30.5493L8.9458 30.0669ZM14.9003 31.6072L14.5233 31.9356L14.5238 31.9361L14.9003 31.6072ZM15.5353 34.3886L15.9977 34.5789L15.9978 34.5786L15.5353 34.3886ZM11.916 36.273L11.8832 35.7741L11.8831 35.7741L11.916 36.273ZM9.99467 37.2626L9.57525 36.9904L9.57491 36.991L9.99467 37.2626ZM9.74539 42.3912L9.25584 42.4929L9.51117 43.7223L10.1708 42.6539L9.74539 42.3912ZM16.1963 36.8663L16.2134 36.3666L16.212 36.3665L16.1963 36.8663ZM17.2475 37.3765L16.8636 37.6969L16.8648 37.6983L17.2475 37.3765ZM17.6873 38.5987L17.1894 38.6453L17.2675 39.4802L17.9649 39.0145L17.6873 38.5987ZM26.9298 35.7912L26.9805 36.2886L27.552 36.2304L27.4155 35.6724L26.9298 35.7912ZM32.1459 0.709935L31.7908 0.357968L31.7764 0.372501L31.7632 0.388163L32.1459 0.709935ZM32.1575 0.699838L32.4695 1.09055L32.4695 1.09055L32.1575 0.699838ZM32.1718 0.686203L31.8028 0.34875L31.7857 0.367525L31.7705 0.387947L32.1718 0.686203ZM32.2588 0.603138L32.5835 0.983381L32.5993 0.969865L32.614 0.95508L32.2588 0.603138ZM32.3176 0.5533L32.0385 0.138437L32.0385 0.138447L32.3176 0.5533ZM32.4056 0.500617L32.6508 0.936388L32.6513 0.936068L32.4056 0.500617ZM32.4258 0.489221L32.6715 0.924672L32.6822 0.918656L32.6925 0.912127L32.4258 0.489221ZM32.4846 0.455995L32.289 -0.00427721L32.28 -0.000220289L32.4846 0.455995ZM32.621 0.410903L32.5496 -0.0839802L32.5239 -0.0802689L32.4987 -0.0739065L32.621 0.410903ZM32.6539 0.401939L32.8133 0.875864L32.8178 0.874294L32.6539 0.401939ZM32.6539 0.401925L32.4946 -0.0720169L32.49 -0.07043L32.6539 0.401925ZM32.6704 0.396664L32.5609 -0.091216L32.5463 -0.0879323L32.5319 -0.0837767L32.6704 0.396664ZM32.8679 0.375305L32.885 -0.124403L32.8765 -0.124695H32.8679V0.375305ZM33.0067 0.380051L32.9896 0.879759L32.9981 0.880051H33.0067V0.380051ZM33.7239 0.714679L33.3405 1.03556L33.342 1.03735L33.7239 0.714679ZM38.9871 35.6228L38.501 35.5054L38.3608 36.0866L38.9576 36.1219L38.9871 35.6228ZM54.6305 42.2773L55.116 42.1571L55.1133 42.1472L54.6305 42.2773ZM54.6352 42.3081L55.1295 42.2328L55.1261 42.2102L55.1206 42.188L54.6352 42.3081ZM54.6493 42.4007L55.1444 42.3306L55.1436 42.3253L54.6493 42.4007ZM54.6591 42.5073L54.161 42.5526L54.1623 42.5635L54.6591 42.5073ZM54.6599 42.5146L54.1631 42.5708L54.1637 42.576L54.6599 42.5146ZM54.6608 42.5223L55.1589 42.4788L55.1589 42.4785L54.6608 42.5223ZM54.6604 42.5472L54.1617 42.511L54.1617 42.511L54.6604 42.5472ZM54.6571 42.5777L54.161 42.5155L54.1609 42.5158L54.6571 42.5777ZM54.6564 42.5834L54.1602 42.5215L54.1586 42.5348L54.1576 42.5481L54.6564 42.5834ZM54.6561 42.5868L54.1574 42.5515L54.1574 42.5516L54.6561 42.5868ZM54.6446 42.6855L54.1555 42.5816L54.1532 42.5927L54.1513 42.604L54.6446 42.6855ZM54.6406 42.7071L55.1308 42.8059L55.1308 42.8057L54.6406 42.7071ZM54.6368 42.7253L54.1489 42.6159L54.1489 42.6159L54.6368 42.7253ZM54.6258 42.7709L55.1055 42.9119L55.1085 42.9017L55.1111 42.8912L54.6258 42.7709ZM54.621 42.7874L54.1412 42.6464L54.1399 42.6512L54.621 42.7874ZM54.6177 42.799L54.1366 42.6628L54.1364 42.6635L54.6177 42.799ZM36.2398 38.5465V39.0465H36.6107L36.7183 38.6915L36.2398 38.5465ZM33.8081 38.5465H33.3081V39.0465H33.8081V38.5465ZM33.8081 4.22958L34.2404 3.97833L33.3081 2.37434V4.22958H33.8081ZM31.9267 38.5465V39.0465H32.4267V38.5465H31.9267ZM31.9267 4.47868H32.4267V2.57821L31.4915 4.23262L31.9267 4.47868ZM29.6338 38.5465L29.1553 38.6915L29.2629 39.0465H29.6338V38.5465ZM51.6038 43.4045L52.0814 43.5526L52.3126 42.8071L51.5387 42.9088L51.6038 43.4045ZM51.599 43.42L52.0765 43.5682L52.0766 43.5681L51.599 43.42ZM51.6031 43.4046L51.1256 43.2563L50.8941 44.002L51.6682 43.9003L51.6031 43.4046ZM52.365 42.0542L52.6966 42.4284L53.0489 42.1162L52.7586 41.7458L52.365 42.0542ZM38.5018 37.4999L38.5278 37.0006L38.1263 36.9797L38.0197 37.3673L38.5018 37.4999ZM37.8269 39.7877L38.3036 39.9386L38.3036 39.9384L37.8269 39.7877ZM28.0439 39.7877L27.5668 39.9371L27.5672 39.9385L28.0439 39.7877ZM27.416 37.6566L27.8976 37.5223L27.7853 37.1192L27.3687 37.1588L27.416 37.6566ZM17.5528 41.0527L17.245 40.6586L17.0839 40.7844L17.0571 40.9872L17.5528 41.0527ZM17.5314 41.2191L18.0275 41.2819L18.0275 41.2819L17.5314 41.2191ZM17.4963 41.4869L17.0011 41.4179L17.0007 41.4213L17.4963 41.4869ZM17.2917 43.8175L16.7924 43.8422L16.8334 44.6714L17.5472 44.2473L17.2917 43.8175ZM17.9197 43.1221L17.5179 42.8244L17.5166 42.8263L17.9197 43.1221ZM17.923 43.1176L17.5214 42.8198L17.5213 42.8199L17.923 43.1176ZM22.8573 43.1175L22.4556 43.4153L22.4557 43.4154L22.8573 43.1175ZM22.8607 43.1221L23.2631 42.8253L23.2623 42.8243L22.8607 43.1221ZM24.7844 43.1221L25.1861 43.4199L25.1862 43.4198L24.7844 43.1221ZM24.7878 43.1176L24.3862 42.8198L24.3861 42.8199L24.7878 43.1176ZM29.7221 43.1175L29.3204 43.4153L29.3205 43.4154L29.7221 43.1175ZM29.7255 43.1221L30.1271 42.8243L30.1271 42.8243L29.7255 43.1221ZM31.6492 43.1221L32.0509 43.4199L32.0516 43.419L31.6492 43.1221ZM36.5845 43.1175L36.9863 42.8199L36.9861 42.8197L36.5845 43.1175ZM36.5879 43.1221L36.9901 42.8251L36.9897 42.8245L36.5879 43.1221ZM38.514 43.1245L38.1123 42.8268L38.1123 42.8268L38.514 43.1245ZM38.5173 43.12L38.1157 42.8222L38.1157 42.8222L38.5173 43.12ZM43.4516 43.12L43.0499 43.4177L43.05 43.4178L43.4516 43.12ZM43.455 43.1245L43.8574 42.8278L43.8566 42.8267L43.455 43.1245ZM45.3811 43.1221L45.7833 43.4191L45.7834 43.419L45.3811 43.1221ZM50.3187 43.1175L49.9171 43.4153L49.9171 43.4154L50.3187 43.1175ZM50.3221 43.1221L50.7238 42.8243L50.7237 42.8243L50.3221 43.1221ZM51.4274 43.8839L51.6294 44.3413L51.7334 44.2954L51.8073 44.209L51.4274 43.8839ZM55.0022 43.1819C55.0328 43.1253 55.0555 43.0689 55.0724 43.0179L54.1228 42.7043C54.122 42.7069 54.1213 42.7085 54.121 42.7093C54.1207 42.71 54.1211 42.709 54.1225 42.7064L55.0022 43.1819ZM54.2449 42.5578L54.2445 42.5582L54.8802 43.3301L54.8806 43.3298L54.2449 42.5578ZM54.7854 43.4322C54.9333 43.3327 54.9958 43.196 55.0108 43.1658L54.1148 42.7218C54.1015 42.7486 54.1358 42.664 54.2272 42.6025L54.7854 43.4322ZM54.8797 43.3568C54.8897 43.3428 54.9092 43.3159 54.9293 43.284L54.0834 42.7507C54.0828 42.7517 54.0815 42.7535 54.079 42.7572C54.0762 42.7613 54.073 42.7657 54.0671 42.7739L54.8797 43.3568ZM54.8677 43.3736C54.8706 43.3695 54.8738 43.365 54.8796 43.3569L54.0672 42.7738C54.0621 42.781 54.0543 42.7918 54.0461 42.8035L54.8677 43.3736ZM54.769 43.4949C54.8 43.4602 54.8283 43.425 54.8488 43.3992L54.0651 42.7779C54.048 42.7996 54.034 42.8166 54.0226 42.8293L54.769 43.4949ZM54.6709 43.5913C54.7046 43.561 54.7334 43.5318 54.751 43.5141L54.0406 42.8102C54.0206 42.8304 54.0117 42.8392 54.0031 42.8469L54.6709 43.5913ZM54.5576 43.6862C54.5988 43.656 54.6458 43.6178 54.6922 43.571L53.9819 42.8671C53.9817 42.8673 53.9804 42.8686 53.9776 42.871C53.9747 42.8734 53.9709 42.8764 53.9659 42.8801L54.5576 43.6862ZM54.4958 43.7275C54.5112 43.7177 54.5265 43.7076 54.5408 43.698L53.9827 42.8683C53.9753 42.8732 53.9666 42.879 53.9573 42.8849L54.4958 43.7275ZM54.4502 43.756C54.4656 43.7466 54.4812 43.7369 54.4959 43.7275L53.9573 42.8849C53.9483 42.8906 53.9398 42.896 53.9322 42.9005L54.4502 43.756ZM54.4113 43.7774C54.4154 43.7751 54.4167 43.7745 54.4164 43.7746L53.966 42.8819C53.9516 42.8891 53.9391 42.8959 53.9294 42.9012L54.4113 43.7774ZM54.4003 43.7835C54.4054 43.7807 54.4086 43.7789 54.4115 43.7773L53.9293 42.9013C53.9226 42.9049 53.9163 42.9085 53.9117 42.911L54.4003 43.7835ZM54.3177 43.8266C54.3548 43.8093 54.3865 43.7913 54.4004 43.7835L53.9116 42.9111C53.9031 42.9159 53.8993 42.918 53.8961 42.9197C53.8935 42.9211 53.8936 42.9209 53.8954 42.9201L54.3177 43.8266ZM54.2634 43.8504C54.2822 43.8429 54.3058 43.8329 54.3318 43.8197L53.8813 42.927C53.8883 42.9234 53.8924 42.9218 53.8912 42.9223L54.2634 43.8504ZM54.2158 43.8685C54.2257 43.8649 54.2442 43.8582 54.2636 43.8504L53.8911 42.9224C53.8889 42.9232 53.8854 42.9246 53.873 42.9291L54.2158 43.8685ZM54.1981 43.8751C54.2017 43.8737 54.2061 43.872 54.2158 43.8685L53.873 42.9291C53.8647 42.9321 53.8509 42.9372 53.8363 42.9428L54.1981 43.8751ZM54.1999 43.8744C54.2034 43.8729 54.2034 43.8729 54.2029 43.8731C54.202 43.8735 54.1987 43.8748 54.194 43.8766L53.8403 42.9413C53.8199 42.949 53.8021 42.9569 53.7979 42.9588L54.1999 43.8744ZM54.161 43.8906C54.1794 43.8835 54.1955 43.8763 54.1997 43.8745L53.7981 42.9587C53.7948 42.9601 53.7946 42.9602 53.7949 42.9601C53.7955 42.9598 53.7981 42.9587 53.8021 42.9572L54.161 43.8906ZM54.0701 43.9182C54.1075 43.9098 54.1384 43.8993 54.1607 43.8907L53.8023 42.9571C53.8116 42.9535 53.8287 42.9475 53.8514 42.9424L54.0701 43.9182ZM53.9478 43.9315C53.9485 43.9315 54.0107 43.9334 54.0832 43.9151L53.8383 42.9455C53.9013 42.9296 53.9553 42.9315 53.9478 42.9315V43.9315ZM53.9465 43.9315H53.9478V42.9315H53.9465V43.9315ZM54.057 43.9175C53.9997 43.9319 53.9533 43.9315 53.9481 43.9315L53.945 42.9315C53.9323 42.9315 53.8784 42.9313 53.8128 42.9478L54.057 43.9175ZM53.7091 43.9635C53.8379 43.9635 53.9561 43.9438 54.0609 43.9165L53.8089 42.9488C53.7678 42.9595 53.7355 42.9635 53.7091 42.9635V43.9635ZM53.5656 43.4801C53.7676 43.9375 53.7674 43.9376 53.7671 43.9377C53.767 43.9378 53.7668 43.9379 53.7667 43.9379C53.7664 43.9381 53.766 43.9382 53.7657 43.9384C53.7651 43.9386 53.7645 43.9389 53.7639 43.9391C53.7627 43.9397 53.7615 43.9402 53.7603 43.9407C53.7579 43.9417 53.7556 43.9427 53.7532 43.9436C53.7486 43.9455 53.7442 43.9472 53.74 43.9487C53.7315 43.9518 53.7239 43.9543 53.7171 43.9564C53.7036 43.9604 53.6936 43.9626 53.6879 43.9636C53.6768 43.9657 53.6821 43.9635 53.7091 43.9635V42.9635C53.6303 42.9635 53.5639 42.9697 53.5075 42.98C53.4791 42.9852 53.4531 42.9915 53.4292 42.9987C53.4173 43.0023 53.4059 43.0061 53.3949 43.0101C53.3895 43.0121 53.3841 43.0142 53.3789 43.0163C53.3763 43.0174 53.3738 43.0184 53.3712 43.0195C53.37 43.02 53.3687 43.0206 53.3674 43.0211C53.3668 43.0214 53.3662 43.0216 53.3656 43.0219C53.3652 43.0221 53.3649 43.0222 53.3646 43.0223C53.3645 43.0224 53.3642 43.0225 53.3642 43.0225C53.3639 43.0226 53.3637 43.0227 53.5656 43.4801ZM53.8716 44.0924C53.897 44.0105 53.9265 43.9156 53.9544 43.8357C53.9684 43.7953 53.9796 43.766 53.9875 43.7477C53.9914 43.7384 53.9922 43.7374 53.9899 43.7418C53.9886 43.7443 53.9851 43.7508 53.9793 43.7599C53.974 43.7681 53.9629 43.785 53.9455 43.8052L53.1858 43.155C53.1184 43.2337 53.0795 43.3275 53.0677 43.3552C53.0471 43.4035 53.0274 43.457 53.0102 43.5063C52.9755 43.6056 52.9409 43.7175 52.9165 43.7959L53.8716 44.0924ZM53.8667 44.1079L53.8715 44.0925L52.9166 43.7958L52.9118 43.8112L53.8667 44.1079ZM51.2727 46.2869C52.205 46.2869 52.8279 45.9052 53.2307 45.412C53.6123 44.9446 53.7769 44.3984 53.867 44.1072L52.9116 43.8118C52.8182 44.114 52.6994 44.4815 52.4561 44.7795C52.2339 45.0516 51.8902 45.2869 51.2727 45.2869V46.2869ZM48.4051 44.5467C48.8791 45.1859 49.6727 46.2869 51.2727 46.2869V45.2869C50.2215 45.2869 49.6981 44.6116 49.2084 43.9511L48.4051 44.5467ZM48.4016 44.5419L48.405 44.5465L49.2086 43.9513L49.2052 43.9467L48.4016 44.5419ZM47.8415 43.9635C47.884 43.9635 47.8991 43.9685 47.9036 43.9701C47.9079 43.9716 47.9245 43.9778 47.9596 44.0071C48.0471 44.0802 48.1686 44.2247 48.4004 44.5403L49.2064 43.9483C48.9866 43.6491 48.7966 43.4033 48.6007 43.2396C48.3657 43.0434 48.1236 42.9635 47.8415 42.9635V43.9635ZM47.2813 44.5396C47.5148 44.2246 47.6364 44.0802 47.7242 44.0069C47.7594 43.9775 47.7759 43.9715 47.7799 43.97C47.7841 43.9685 47.799 43.9635 47.8415 43.9635V42.9635C47.5592 42.9635 47.3177 43.0435 47.0833 43.2392C46.8884 43.402 46.6983 43.6468 46.478 43.9441L47.2813 44.5396ZM47.2779 44.5442L47.2813 44.5397L46.478 43.944L46.4747 43.9486L47.2779 44.5442ZM44.408 46.2845C46.0101 46.2845 46.8038 45.1837 47.2779 44.5442L46.4746 43.9486C45.9852 44.6088 45.4617 45.2845 44.408 45.2845V46.2845ZM41.5404 44.5442C42.0143 45.1835 42.8079 46.2845 44.408 46.2845V45.2845C43.3567 45.2845 42.8333 44.6091 42.3437 43.9487L41.5404 44.5442ZM41.5371 44.5398L41.5405 44.5444L42.3436 43.9485L42.3402 43.9439L41.5371 44.5398ZM40.9767 43.9635C41.0193 43.9635 41.0344 43.9685 41.039 43.9701C41.0435 43.9717 41.0602 43.9779 41.0953 44.0072C41.1828 44.0801 41.3044 44.2243 41.5362 44.5386L42.341 43.9451C42.1213 43.6472 41.9313 43.4021 41.7354 43.2389C41.5006 43.0433 41.2587 42.9635 40.9767 42.9635V43.9635ZM40.4171 44.5413C40.6501 44.2257 40.7724 44.0806 40.8605 44.0071C40.8959 43.9775 40.9126 43.9713 40.9166 43.9699C40.9208 43.9684 40.9352 43.9635 40.9767 43.9635V42.9635C40.6949 42.9635 40.4536 43.044 40.2193 43.2397C40.024 43.4029 39.8335 43.6482 39.6126 43.9473L40.4171 44.5413ZM37.5455 46.2869C39.149 46.2869 39.9449 45.1813 40.4172 44.5411L39.6125 43.9474C39.1253 44.6078 38.5994 45.2869 37.5455 45.2869V46.2869ZM34.6756 44.5466C35.1497 45.1862 35.9433 46.2869 37.5455 46.2869V45.2869C36.4918 45.2869 35.9683 44.6113 35.4789 43.9511L34.6756 44.5466ZM34.6722 44.5421L34.6756 44.5467L35.4789 43.9511L35.4755 43.9465L34.6722 44.5421ZM34.112 43.9659C34.1545 43.9659 34.1697 43.9709 34.1743 43.9726C34.1787 43.9741 34.1954 43.9804 34.2305 44.0096C34.3181 44.0826 34.4396 44.2267 34.6715 44.5411L35.4763 43.9475C35.2566 43.6496 35.0665 43.4045 34.8706 43.2414C34.6359 43.0457 34.394 42.9659 34.112 42.9659V43.9659ZM33.5518 44.542C33.7853 44.227 33.9069 44.0826 33.9947 44.0093C34.0299 43.9799 34.0463 43.9739 34.0504 43.9724C34.0546 43.9709 34.0695 43.9659 34.112 43.9659V42.9659C33.8296 42.9659 33.5882 43.046 33.3538 43.2417C33.1588 43.4045 32.9688 43.6493 32.7484 43.9465L33.5518 44.542ZM30.6808 46.2869C32.2868 46.2869 33.0803 45.181 33.5524 44.5411L32.7478 43.9474C32.2603 44.6081 31.7369 45.2869 30.6808 45.2869V46.2869ZM27.8132 44.5467C28.2871 45.1859 29.0807 46.2869 30.6808 46.2869V45.2869C29.6295 45.2869 29.1062 44.6116 28.6165 43.9511L27.8132 44.5467ZM27.8098 44.5421L27.8132 44.5467L28.6164 43.951L28.613 43.9464L27.8098 44.5421ZM27.2496 43.9659C27.2921 43.9659 27.3072 43.9709 27.3118 43.9726C27.3163 43.9741 27.333 43.9804 27.3681 44.0096C27.4556 44.0826 27.5772 44.2267 27.809 44.5411L28.6138 43.9475C28.3941 43.6496 28.2041 43.4045 28.0082 43.2414C27.7734 43.0457 27.5315 42.9659 27.2496 42.9659V43.9659ZM26.6899 44.5437C26.9229 44.2282 27.0453 44.0831 27.1333 44.0095C27.1687 43.9799 27.1854 43.9738 27.1894 43.9723C27.1936 43.9708 27.208 43.9659 27.2496 43.9659V42.9659C26.9677 42.9659 26.7264 43.0464 26.4921 43.2421C26.2968 43.4053 26.1063 43.6506 25.8855 43.9497L26.6899 44.5437ZM23.8183 46.2894C25.4219 46.2894 26.2177 45.1838 26.69 44.5436L25.8853 43.9499C25.3981 44.6102 24.8723 45.2894 23.8183 45.2894V46.2894ZM20.9508 44.5491C21.4247 45.1883 22.2183 46.2894 23.8183 46.2894V45.2894C22.7671 45.2894 22.2437 44.614 21.7541 43.9535L20.9508 44.5491ZM20.9474 44.5446L20.9508 44.5492L21.754 43.9534L21.7506 43.9489L20.9474 44.5446ZM20.3871 43.9683C20.4296 43.9683 20.4448 43.9734 20.4494 43.975C20.4538 43.9766 20.4705 43.9828 20.5057 44.0121C20.5932 44.085 20.7148 44.2291 20.9466 44.5435L21.7514 43.9499C21.5317 43.6521 21.3416 43.407 21.1458 43.2438C20.911 43.0482 20.6691 42.9683 20.3871 42.9683V43.9683ZM19.8275 44.5462C20.0605 44.2306 20.1828 44.0855 20.2708 44.012C20.3063 43.9824 20.3229 43.9762 20.327 43.9747C20.3311 43.9733 20.3456 43.9683 20.3871 43.9683V42.9683C20.1052 42.9683 19.864 43.0488 19.6297 43.2445C19.4343 43.4077 19.2439 43.653 19.023 43.9521L19.8275 44.5462ZM16.9559 46.2918C18.5594 46.2918 19.3553 45.1862 19.8276 44.546L19.0229 43.9523C18.5357 44.6126 18.0098 45.2918 16.9559 45.2918V46.2918ZM15.5027 45.632C15.8702 46.0577 16.3928 46.2918 16.9559 46.2918V45.2918C16.677 45.2918 16.433 45.1794 16.2596 44.9785L15.5027 45.632ZM15.1315 41.1622C14.9974 42.1717 14.8905 43.0423 14.9068 43.7587C14.9232 44.479 15.0646 45.1282 15.5038 45.6333L16.2585 44.9772C16.0416 44.7277 15.9207 44.3564 15.9066 43.7359C15.8923 43.1114 15.9864 42.3207 16.1228 41.2939L15.1315 41.1622ZM15.136 41.1278L15.1314 41.1631L16.1229 41.293L16.1275 41.2578L15.136 41.1278ZM15.329 38.8303C15.3487 39.0519 15.3292 39.4271 15.2862 39.8698C15.2443 40.3014 15.1845 40.7581 15.136 41.1278L16.1275 41.2578C16.1757 40.8907 16.2378 40.4174 16.2815 39.9664C16.3242 39.5264 16.354 39.0666 16.3251 38.7417L15.329 38.8303ZM10.7312 45.4936C11.3642 44.2288 12.2923 42.7249 13.2722 41.5011C13.7621 40.8891 14.2562 40.3583 14.724 39.9641C15.2007 39.5623 15.6077 39.3389 15.9238 39.2766L15.7304 38.2954C15.1681 38.4063 14.6047 38.7568 14.0795 39.1994C13.5454 39.6496 13.006 40.2335 12.4915 40.8761C11.4624 42.1615 10.4974 43.7263 9.83694 45.046L10.7312 45.4936ZM9.44453 46.2919C9.98617 46.2919 10.4873 45.9859 10.7321 45.4917L9.83604 45.0478C9.76102 45.1993 9.60841 45.2919 9.44453 45.2919V46.2919ZM9.32552 46.2856C9.38063 46.2926 9.43082 46.2919 9.44453 46.2919V45.2919C9.4395 45.2919 9.43676 45.2919 9.43436 45.2919C9.43217 45.2919 9.43163 45.2918 9.43206 45.2919C9.43278 45.2919 9.43986 45.2921 9.45065 45.2935L9.32552 46.2856ZM8.08935 45.3358C8.28359 45.8802 8.78421 46.2559 9.3596 46.2887L9.41657 45.2903C9.24412 45.2805 9.09096 45.1673 9.03121 44.9998L8.08935 45.3358ZM7.99696 35.9513C6.93295 37.5967 6.9395 39.8398 7.19168 41.6522C7.4475 43.4906 7.97642 45.0209 8.08963 45.3365L9.03093 44.999C8.92779 44.7114 8.42431 43.2547 8.18214 41.5144C7.93635 39.7479 7.97935 37.8201 8.83669 36.4943L7.99696 35.9513ZM11.7614 33.8774C10.1358 33.9835 8.81456 34.6893 7.9972 35.9509L8.83645 36.4947C9.45833 35.5348 10.47 34.9638 11.8265 34.8753L11.7614 33.8774ZM13.332 33.4737C13.3527 33.423 13.3335 33.5116 13.0482 33.6288C12.7883 33.7355 12.373 33.8371 11.761 33.8775L11.8268 34.8753C12.5106 34.8302 13.0395 34.7135 13.4281 34.5538C13.7913 34.4046 14.1249 34.1787 14.2584 33.8503L13.332 33.4737ZM13.1106 33.1889C13.2128 33.3058 13.2733 33.4104 13.3012 33.4833C13.315 33.5192 13.3172 33.5381 13.3174 33.5404C13.3176 33.5431 13.3148 33.5161 13.332 33.4737L14.2584 33.8503C14.3651 33.5878 14.3085 33.3175 14.2351 33.1257C14.156 32.9193 14.0248 32.7153 13.8636 32.5308L13.1106 33.1889ZM9.5697 32.3809C11.1783 31.9397 12.5429 32.5371 13.1101 33.1883L13.8642 32.5314C13.0297 31.5736 11.2618 30.8799 9.30521 31.4165L9.5697 32.3809ZM3.74423 39.4845C4.19051 37.8419 5.0804 36.2098 6.15781 34.9093C7.24307 33.5993 8.47244 32.6803 9.56906 32.3811L9.30585 31.4163C7.93067 31.7915 6.539 32.8817 5.38775 34.2713C4.22865 35.6704 3.26658 37.4284 2.77921 39.2223L3.74423 39.4845ZM4.27753 43.8333C3.72402 43.26 3.50063 42.491 3.46579 41.6797C3.43094 40.8681 3.5878 40.0625 3.74436 39.484L2.77908 39.2228C2.60873 39.8522 2.42574 40.7684 2.46671 41.7226C2.5077 42.677 2.77582 43.7176 3.55811 44.5278L4.27753 43.8333ZM4.24963 45.8803C4.81629 45.3229 4.83036 44.4093 4.27856 43.8343L3.55709 44.5268C3.72962 44.7065 3.72488 44.9937 3.54839 45.1673L4.24963 45.8803ZM2.20834 45.8522C2.76603 46.4295 3.67681 46.4401 4.2485 45.8814L3.54952 45.1662C3.37336 45.3384 3.09892 45.3348 2.92757 45.1574L2.20834 45.8522ZM0.963651 38.7217C0.185525 41.587 0.569755 44.1566 2.20841 45.8523L2.92751 45.1573C1.61708 43.8013 1.20642 41.6434 1.9287 38.9838L0.963651 38.7217ZM8.81432 29.5845C6.94657 30.0936 5.23242 31.4808 3.87523 33.1563C2.51342 34.8375 1.46874 36.8602 0.963623 38.7218L1.92873 38.9837C2.39471 37.2663 3.37131 35.3672 4.65228 33.7858C5.93787 32.1987 7.48799 30.9825 9.07727 30.5493L8.81432 29.5845ZM15.2774 31.2788C14.0424 29.8609 11.5759 28.8312 8.81421 29.5845L9.07738 30.5493C11.4659 29.8978 13.5382 30.8045 14.5233 31.9356L15.2774 31.2788ZM15.9978 34.5786C16.4513 33.4743 16.1381 32.2643 15.2769 31.2783L14.5238 31.9361C15.2006 32.711 15.3483 33.5278 15.0728 34.1987L15.9978 34.5786ZM11.9488 36.7719C13.2171 36.6885 14.1289 36.3937 14.7798 35.9834C15.4362 35.5697 15.8021 35.0543 15.9977 34.5789L15.0729 34.1983C14.9511 34.4943 14.7161 34.8415 14.2466 35.1374C13.7716 35.4368 13.0325 35.6985 11.8832 35.7741L11.9488 36.7719ZM10.4141 37.5348C10.7001 37.0941 11.163 36.8237 11.9489 36.7719L11.8831 35.7741C10.8676 35.841 10.0747 36.2208 9.57525 36.9905L10.4141 37.5348ZM10.2349 42.2896C10.0592 41.4436 9.93009 40.5054 9.93788 39.641C9.94579 38.7645 10.0944 38.0289 10.4144 37.5343L9.57491 36.991C9.10245 37.721 8.94648 38.6835 8.93792 39.632C8.92926 40.5925 9.07172 41.6064 9.25584 42.4929L10.2349 42.2896ZM16.212 36.3665C14.7158 36.3194 13.3265 37.257 12.1868 38.3862C11.03 39.5325 10.0339 40.9722 9.31995 42.1285L10.1708 42.6539C10.868 41.5248 11.8157 40.1617 12.8906 39.0966C13.9828 38.0146 15.1134 37.3324 16.1805 37.366L16.212 36.3665ZM17.6314 37.0562C17.2751 36.6293 16.7669 36.3856 16.2134 36.3666L16.1791 37.366C16.4535 37.3754 16.693 37.4925 16.8636 37.6969L17.6314 37.0562ZM18.1851 38.5522C18.1328 37.9933 17.9834 37.4748 17.6302 37.0547L16.8648 37.6983C17.0384 37.9047 17.1476 38.1979 17.1894 38.6453L18.1851 38.5522ZM26.8791 35.2937C21.8274 35.8084 19.2199 36.9741 17.4096 38.1829L17.9649 39.0145C19.6163 37.9119 22.0609 36.7897 26.9805 36.2886L26.8791 35.2937ZM31.7632 0.388163C31.243 1.00689 20.9882 13.6048 26.4441 35.91L27.4155 35.6724C22.0625 13.7879 32.127 1.50942 32.5286 1.03171L31.7632 0.388163ZM31.8455 0.309128C31.8436 0.310697 31.8179 0.330594 31.7908 0.357968L32.5011 1.0619C32.4907 1.07232 32.4818 1.08021 32.476 1.08518C32.471 1.08945 32.4668 1.09272 32.4695 1.09055L31.8455 0.309128ZM31.7705 0.387947C31.792 0.359055 31.8129 0.338084 31.8274 0.324809C31.8396 0.313641 31.8505 0.305201 31.8455 0.309131L32.4695 1.09055C32.4699 1.09029 32.4858 1.0778 32.5028 1.06224C32.5221 1.04458 32.5475 1.01888 32.5731 0.984458L31.7705 0.387947ZM31.9341 0.222896C31.8934 0.25767 31.8491 0.298222 31.8028 0.34875L32.5407 1.02366C32.551 1.01248 32.5631 1.00082 32.5835 0.983381L31.9341 0.222896ZM32.0385 0.138447C31.9813 0.176918 31.937 0.217581 31.9037 0.251196L32.614 0.95508C32.6183 0.950724 32.6116 0.958161 32.5967 0.968152L32.0385 0.138447ZM32.1604 0.0648471C32.1327 0.0804501 32.0866 0.106108 32.0385 0.138437L32.5967 0.968162C32.6064 0.961608 32.6181 0.954753 32.6508 0.936388L32.1604 0.0648471ZM32.1801 0.0537706L32.1599 0.0651669L32.6513 0.936068L32.6715 0.924672L32.1801 0.0537706ZM32.28 -0.000220289C32.2215 0.0259873 32.1738 0.0570316 32.159 0.0663155L32.6925 0.912127C32.6975 0.90896 32.7003 0.907215 32.7028 0.905688C32.705 0.9043 32.7057 0.903899 32.7055 0.904042C32.705 0.904334 32.699 0.90782 32.6892 0.912211L32.28 -0.000220289ZM32.4987 -0.0739065C32.432 -0.0570756 32.362 -0.0352 32.289 -0.00418677L32.6801 0.916177C32.6965 0.909219 32.7159 0.902615 32.7433 0.895713L32.4987 -0.0739065ZM32.4945 -0.0719645C32.4871 -0.0695012 32.4921 -0.0712483 32.4989 -0.0732152C32.5067 -0.0754696 32.5249 -0.0804175 32.5496 -0.0839802L32.6923 0.905787C32.7563 0.896568 32.8111 0.876595 32.8133 0.875842L32.4945 -0.0719645ZM32.49 -0.07043L32.4899 -0.0704161L32.8178 0.874294L32.8179 0.87428L32.49 -0.07043ZM32.5319 -0.0837767C32.5141 -0.0786509 32.4982 -0.0732187 32.4946 -0.0719947L32.8133 0.875845C32.8165 0.874778 32.8166 0.874727 32.8164 0.874814C32.8158 0.87499 32.813 0.875897 32.8088 0.877105L32.5319 -0.0837767ZM32.8679 -0.124695C32.7647 -0.124695 32.662 -0.11389 32.5609 -0.091216L32.7798 0.884545C32.8057 0.878739 32.8347 0.875305 32.8679 0.875305V-0.124695ZM33.0237 -0.119656L32.885 -0.124403L32.8508 0.875013L32.9896 0.879759L33.0237 -0.119656ZM34.1074 0.393801C33.8331 0.0660522 33.4314 -0.119949 33.0067 -0.119949V0.880051C33.1369 0.880051 33.2573 0.936123 33.3405 1.03556L34.1074 0.393801ZM39.4731 35.7401C44.8316 13.5426 34.6269 1.00871 34.1059 0.392003L33.342 1.03735C33.7428 1.51181 43.7583 13.7271 38.501 35.5054L39.4731 35.7401ZM55.1133 42.1472C55.0531 41.9236 54.5494 40.362 52.2773 38.7578C50.0118 37.1583 46.0188 35.5379 39.0166 35.1236L38.9576 36.1219C45.835 36.5287 49.6307 38.1133 51.7006 39.5747C53.7638 41.0314 54.1421 42.3865 54.1477 42.4073L55.1133 42.1472ZM55.1206 42.188C55.1255 42.2081 55.1279 42.2238 55.1289 42.2306C55.1294 42.2343 55.1298 42.2371 55.1299 42.2382C55.13 42.239 55.13 42.2396 55.1299 42.2379C55.1297 42.2369 55.1294 42.2337 55.129 42.2302C55.1285 42.2265 55.1279 42.221 55.127 42.2147C55.1253 42.2027 55.122 42.182 55.1159 42.1571L54.1452 42.3974C54.1402 42.3773 54.1378 42.3617 54.1369 42.3549C54.1363 42.3511 54.136 42.3483 54.1359 42.3472C54.1358 42.3464 54.1357 42.3458 54.1359 42.3475C54.136 42.3485 54.1363 42.3517 54.1368 42.3552C54.1372 42.3589 54.1379 42.3643 54.1388 42.3707C54.1405 42.3827 54.1437 42.4034 54.1499 42.4282L55.1206 42.188ZM55.1436 42.3253L55.1295 42.2328L54.1409 42.3835L54.155 42.476L55.1436 42.3253ZM55.1587 42.5004C55.1587 42.426 55.1482 42.3577 55.1444 42.3306L54.1543 42.4708C54.1555 42.4794 54.1564 42.4856 54.1571 42.4914C54.1579 42.4969 54.1583 42.5007 54.1586 42.5033C54.1592 42.5088 54.1587 42.5069 54.1587 42.5004H55.1587ZM55.157 42.462C55.1577 42.4697 55.1587 42.4832 55.1587 42.5004H54.1587C54.1587 42.5221 54.16 42.5403 54.1611 42.5526L55.157 42.462ZM55.1567 42.4584L55.1559 42.451L54.1623 42.5635L54.1631 42.5708L55.1567 42.4584ZM55.1589 42.4785C55.1577 42.4657 55.1563 42.4543 55.1561 42.4532L54.1637 42.576C54.1639 42.5776 54.1638 42.5767 54.1636 42.5754C54.1635 42.5739 54.1631 42.5705 54.1627 42.566L55.1589 42.4785ZM55.1611 42.5288C55.1611 42.5078 55.1599 42.4904 55.1589 42.4788L54.1627 42.5657C54.162 42.5585 54.1611 42.5455 54.1611 42.5288H55.1611ZM55.1591 42.5835C55.1602 42.5675 55.1611 42.5492 55.1611 42.5288H54.1611C54.1611 42.5211 54.1614 42.515 54.1617 42.511L55.1591 42.5835ZM55.1532 42.64C55.1543 42.6316 55.1572 42.6088 55.1591 42.5834L54.1617 42.511C54.1619 42.5077 54.1622 42.5058 54.1621 42.5066C54.1619 42.5079 54.1617 42.5097 54.161 42.5155L55.1532 42.64ZM55.1525 42.6454L55.1532 42.6397L54.1609 42.5158L54.1602 42.5215L55.1525 42.6454ZM55.1549 42.6221L55.1551 42.6187L54.1576 42.5481L54.1574 42.5515L55.1549 42.6221ZM55.1337 42.7893C55.149 42.7174 55.1531 42.6478 55.1549 42.622L54.1574 42.5516C54.1568 42.56 54.1564 42.566 54.1559 42.5718C54.1555 42.5774 54.1551 42.5812 54.1548 42.584C54.1542 42.5903 54.1541 42.5883 54.1555 42.5816L55.1337 42.7893ZM55.1308 42.8057C55.1332 42.7939 55.1356 42.7809 55.1379 42.767L54.1513 42.604C54.1512 42.6045 54.151 42.6059 54.1505 42.6085L55.1308 42.8057ZM55.1247 42.8346C55.1267 42.8257 55.1287 42.816 55.1308 42.8059L54.1505 42.6083C54.1501 42.6103 54.1496 42.6127 54.1489 42.6159L55.1247 42.8346ZM55.1111 42.8912C55.1147 42.8768 55.1198 42.8562 55.1247 42.8346L54.1489 42.6159C54.1469 42.6247 54.1445 42.6346 54.1405 42.6506L55.1111 42.8912ZM55.1007 42.9284L55.1055 42.9119L54.1461 42.6299L54.1413 42.6464L55.1007 42.9284ZM55.0988 42.9352L55.1021 42.9236L54.1399 42.6512L54.1366 42.6628L55.0988 42.9352ZM55.0598 43.0519C55.081 43.0004 55.0944 42.9507 55.099 42.9345L54.1364 42.6635C54.1348 42.6691 54.1338 42.6727 54.1329 42.6759C54.132 42.679 54.1315 42.6806 54.1313 42.6813C54.1308 42.6828 54.1321 42.6782 54.1354 42.6703L55.0598 43.0519ZM36.2398 38.0465H33.8081V39.0465H36.2398V38.0465ZM33.3758 4.48084C36.0722 9.11987 41.0673 20.8903 35.7613 38.4015L36.7183 38.6915C42.1225 20.8566 37.0424 8.79911 34.2404 3.97833L33.3758 4.48084ZM34.3081 38.5465V4.22958H33.3081V38.5465H34.3081ZM32.4267 38.5465V4.47868H31.4267V38.5465H32.4267ZM29.6338 39.0465H31.9267V38.0465H29.6338V39.0465ZM31.4915 4.23262C28.6698 9.22387 23.8557 21.2035 29.1553 38.6915L30.1123 38.4015C24.909 21.2312 29.643 9.53451 32.362 4.72474L31.4915 4.23262ZM51.1263 43.2564L51.1215 43.2719L52.0766 43.5681L52.0814 43.5526L51.1263 43.2564ZM51.6682 43.9003L51.6689 43.9002L51.5387 42.9088L51.538 42.9089L51.6682 43.9003ZM52.0334 41.68C51.454 42.1934 51.2343 42.9062 51.1256 43.2563L52.0806 43.5529C52.193 43.1909 52.3494 42.7361 52.6966 42.4284L52.0334 41.68ZM38.4758 37.9993C47.9292 38.4909 51.0511 41.1881 51.9715 42.3626L52.7586 41.7458C51.5959 40.2622 48.1471 37.5009 38.5278 37.0006L38.4758 37.9993ZM38.3036 39.9384C38.5503 39.1583 38.7754 38.3904 38.9839 37.6325L38.0197 37.3673C37.8143 38.1141 37.5926 38.8699 37.3501 39.637L38.3036 39.9384ZM36.9309 40.9498C37.5618 40.9498 38.1142 40.5368 38.3036 39.9386L37.3502 39.6368C37.2901 39.8265 37.1183 39.9498 36.9309 39.9498V40.9498ZM28.94 40.9498H36.9309V39.9498H28.94V40.9498ZM27.5672 39.9385C27.7565 40.5369 28.309 40.9498 28.94 40.9498V39.9498C28.7525 39.9498 28.5806 39.8265 28.5207 39.6369L27.5672 39.9385ZM26.9344 37.7908C27.1307 38.4948 27.3391 39.2095 27.5668 39.9371L28.5211 39.6384C28.2972 38.923 28.0918 38.2185 27.8976 37.5223L26.9344 37.7908ZM17.8605 41.4467C18.6731 40.8122 19.5853 40.1389 21.0265 39.5485C22.4734 38.9558 24.4754 38.4381 27.4633 38.1543L27.3687 37.1588C24.3102 37.4493 22.2073 37.9841 20.6474 38.6231C19.0819 39.2645 18.0857 40.0021 17.245 40.6586L17.8605 41.4467ZM18.0275 41.2819C18.0345 41.226 18.0413 41.1721 18.0485 41.1181L17.0571 40.9872C17.0495 41.0443 17.0424 41.1009 17.0354 41.1564L18.0275 41.2819ZM17.9916 41.556C18.005 41.4597 18.0165 41.3685 18.0275 41.2819L17.0354 41.1564C17.0243 41.2438 17.0135 41.3289 17.0011 41.4179L17.9916 41.556ZM17.7911 43.7927C17.7657 43.2802 17.8972 42.2689 17.992 41.5526L17.0007 41.4213C16.912 42.0909 16.7613 43.2155 16.7924 43.8422L17.7911 43.7927ZM17.5166 42.8263C17.219 43.2317 17.1039 43.3475 17.0363 43.3876L17.5472 44.2473C17.823 44.0834 18.056 43.7814 18.3227 43.418L17.5166 42.8263ZM17.5213 42.8199L17.5179 42.8244L18.3214 43.4198L18.3248 43.4153L17.5213 42.8199ZM20.3914 41.0795C18.7892 41.0795 17.9955 42.1803 17.5214 42.8198L18.3247 43.4154C18.8142 42.7552 19.3376 42.0795 20.3914 42.0795V41.0795ZM23.2589 42.8197C22.785 42.1805 21.9914 41.0795 20.3914 41.0795V42.0795C21.4426 42.0795 21.966 42.7548 22.4556 43.4153L23.2589 42.8197ZM23.2623 42.8243L23.2589 42.8197L22.4557 43.4154L22.4591 43.42L23.2623 42.8243ZM23.8226 43.4005C23.7801 43.4005 23.7649 43.3955 23.7603 43.3938C23.7559 43.3923 23.7392 43.3861 23.704 43.3568C23.6165 43.2838 23.4949 43.1397 23.2631 42.8253L22.4583 43.4189C22.678 43.7168 22.8681 43.9619 23.0639 44.125C23.2987 44.3207 23.5406 44.4005 23.8226 44.4005V43.4005ZM24.3828 42.8244C24.1492 43.1394 24.0277 43.2838 23.9398 43.3571C23.9047 43.3865 23.8882 43.3925 23.8842 43.394C23.8799 43.3955 23.8651 43.4005 23.8226 43.4005V44.4005C24.1049 44.4005 24.3463 44.3204 24.5807 44.1247C24.7757 43.9619 24.9658 43.7171 25.1861 43.4199L24.3828 42.8244ZM24.3861 42.8199L24.3827 42.8244L25.1862 43.4198L25.1895 43.4153L24.3861 42.8199ZM27.2561 41.0795C25.654 41.0795 24.8603 42.1803 24.3862 42.8198L25.1895 43.4154C25.6789 42.7552 26.2024 42.0795 27.2561 42.0795V41.0795ZM30.1237 42.8197C29.6498 42.1805 28.8561 41.0795 27.2561 41.0795V42.0795C28.3074 42.0795 28.8307 42.7548 29.3204 43.4153L30.1237 42.8197ZM30.1271 42.8243L30.1237 42.8197L29.3205 43.4154L29.3239 43.42L30.1271 42.8243ZM30.6873 43.4005C30.6458 43.4005 30.6312 43.3956 30.627 43.3941C30.6228 43.3926 30.606 43.3863 30.5706 43.3568C30.4825 43.2834 30.3602 43.1387 30.1271 42.8243L29.3238 43.4199C29.5446 43.7178 29.7351 43.9623 29.9304 44.125C30.1645 44.3201 30.4056 44.4005 30.6873 44.4005V43.4005ZM31.2475 42.8244C31.014 43.1394 30.8924 43.2838 30.8046 43.3571C30.7695 43.3865 30.753 43.3925 30.7489 43.394C30.7447 43.3955 30.7298 43.4005 30.6873 43.4005V44.4005C30.9697 44.4005 31.2111 44.3204 31.4455 44.1247C31.6405 43.9619 31.8305 43.7171 32.0509 43.4199L31.2475 42.8244ZM34.1185 41.0795C32.5125 41.0795 31.719 42.1854 31.2469 42.8253L32.0516 43.419C32.539 42.7583 33.0624 42.0795 34.1185 42.0795V41.0795ZM36.9861 42.8197C36.5122 42.1805 35.7186 41.0795 34.1185 41.0795V42.0795C35.1698 42.0795 35.6932 42.7548 36.1828 43.4153L36.9861 42.8197ZM36.9897 42.8245L36.9863 42.8199L36.1827 43.4151L36.1861 43.4197L36.9897 42.8245ZM37.5521 43.4029C37.5096 43.4029 37.4945 43.3979 37.4899 43.3963C37.4855 43.3947 37.4687 43.3885 37.4334 43.359C37.3454 43.2856 37.2232 43.1408 36.9901 42.8251L36.1857 43.4191C36.4065 43.7182 36.5971 43.9637 36.793 44.1271C37.028 44.323 37.2699 44.4029 37.5521 44.4029V43.4029ZM38.1123 42.8268C37.8788 43.1418 37.7572 43.2862 37.6694 43.3595C37.6342 43.3889 37.6178 43.395 37.6137 43.3964C37.6095 43.3979 37.5946 43.4029 37.5521 43.4029V44.4029C37.8345 44.4029 38.0759 44.3229 38.3103 44.1272C38.5053 43.9644 38.6953 43.7196 38.9157 43.4223L38.1123 42.8268ZM38.1157 42.8222L38.1123 42.8268L38.9156 43.4223L38.919 43.4178L38.1157 42.8222ZM40.9857 41.0819C39.3835 41.0819 38.5899 42.1827 38.1157 42.8222L38.919 43.4178C39.4085 42.7576 39.9319 42.0819 40.9857 42.0819V41.0819ZM43.8533 42.8222C43.3793 42.1829 42.5857 41.0819 40.9857 41.0819V42.0819C42.0369 42.0819 42.5603 42.7573 43.0499 43.4177L43.8533 42.8222ZM43.8566 42.8267L43.8532 42.8221L43.05 43.4178L43.0534 43.4224L43.8566 42.8267ZM44.4169 43.4029C44.3744 43.4029 44.3592 43.3979 44.3546 43.3963C44.3502 43.3947 44.3335 43.3885 44.2983 43.3592C44.2108 43.2863 44.0892 43.1421 43.8574 42.8278L43.0526 43.4213C43.2723 43.7192 43.4624 43.9643 43.6582 44.1275C43.893 44.3231 44.1349 44.4029 44.4169 44.4029V43.4029ZM44.9789 42.8251C44.7458 43.1407 44.6236 43.2856 44.5356 43.359C44.5003 43.3885 44.4835 43.3947 44.479 43.3963C44.4745 43.3979 44.4594 43.4029 44.4169 43.4029V44.4029C44.6991 44.4029 44.941 44.323 45.1759 44.1271C45.3719 43.9637 45.5625 43.7182 45.7833 43.4191L44.9789 42.8251ZM47.8504 41.0795C46.2469 41.0795 45.4511 42.1851 44.9788 42.8253L45.7834 43.419C46.2706 42.7586 46.7965 42.0795 47.8504 42.0795V41.0795ZM50.7204 42.8198C50.2462 42.1802 49.4526 41.0795 47.8504 41.0795V42.0795C48.9042 42.0795 49.4276 42.7551 49.9171 43.4153L50.7204 42.8198ZM50.7237 42.8243L50.7203 42.8197L49.9171 43.4154L49.9205 43.42L50.7237 42.8243ZM51.284 43.4005C51.2425 43.4005 51.2279 43.3956 51.2237 43.3941C51.2194 43.3926 51.2027 43.3863 51.1672 43.3568C51.0792 43.2834 50.9569 43.1387 50.7238 42.8243L49.9205 43.4199C50.1413 43.7178 50.3318 43.9623 50.5271 44.125C50.7612 44.3201 51.0022 44.4005 51.284 44.4005V43.4005ZM51.4274 43.8839C51.2255 43.4265 51.2257 43.4264 51.2259 43.4263C51.226 43.4263 51.2263 43.4262 51.2264 43.4261C51.2267 43.426 51.227 43.4258 51.2273 43.4257C51.2279 43.4254 51.2286 43.4252 51.2292 43.4249C51.2304 43.4244 51.2316 43.4239 51.2328 43.4233C51.2352 43.4223 51.2375 43.4214 51.2398 43.4204C51.2444 43.4186 51.2488 43.4169 51.2531 43.4153C51.2615 43.4122 51.2692 43.4097 51.276 43.4077C51.2895 43.4036 51.2995 43.4015 51.3052 43.4004C51.3163 43.3984 51.311 43.4005 51.284 43.4005V44.4005C51.3628 44.4005 51.4292 44.3943 51.4856 44.384C51.514 44.3788 51.54 44.3725 51.5639 44.3653C51.5758 44.3617 51.5872 44.3579 51.5982 44.3539C51.6036 44.3519 51.609 44.3498 51.6142 44.3477C51.6168 44.3467 51.6193 44.3456 51.6219 44.3445C51.6232 44.344 51.6244 44.3435 51.6257 44.3429C51.6263 44.3427 51.6269 44.3424 51.6275 44.3421C51.6279 44.342 51.6282 44.3418 51.6285 44.3417C51.6286 44.3416 51.6289 44.3415 51.6289 44.3415C51.6292 44.3414 51.6294 44.3413 51.4274 43.8839ZM51.1215 43.2717C51.0961 43.3536 51.0666 43.4485 51.0387 43.5284C51.0246 43.5687 51.0134 43.5981 51.0056 43.6164C51.0017 43.6256 51.0009 43.6266 51.0032 43.6222C51.0045 43.6198 51.008 43.6133 51.0138 43.6042C51.0191 43.5959 51.0302 43.5791 51.0476 43.5588L51.8073 44.209C51.8746 44.1303 51.9136 44.0366 51.9254 44.0089C51.946 43.9605 51.9657 43.9071 51.9829 43.8578C52.0175 43.7585 52.0522 43.6467 52.0765 43.5682L51.1215 43.2717Z" fill="#222532"/>
</svg>
