<svg width="498" height="147" viewBox="0 0 498 147" fill="none" xmlns="http://www.w3.org/2000/svg">
<path opacity="0.02" d="M9.8 0.399988C20.3333 0.399988 29.6 1.93332 37.6 4.99999C45.7333 8.06666 53 12.6667 59.4 18.8L42.8 38.4C33.2 30.8 23.1333 27 12.6 27C7.13334 27 2.93334 28.0667 9.53674e-07 30.2C-2.8 32.2 -4.2 35.0667 -4.2 38.8C-4.2 41.4667 -3.46666 43.6667 -2 45.4C-0.533331 47.1333 1.93334 48.8 5.4 50.4C8.86667 52 14.3333 54 21.8 56.4C36.0667 60.9333 46.4667 66.6667 53 73.6C59.6667 80.4 63 89.8667 63 102C63 110.8 60.7333 118.6 56.2 125.4C51.6667 132.067 45.0667 137.267 36.4 141C27.8667 144.733 17.8 146.6 6.2 146.6C-15.9333 146.6 -34 139.867 -48 126.4L-29.8 106.2C-18.7333 115.267 -7.2 119.8 4.8 119.8C11.0667 119.8 15.9333 118.467 19.4 115.8C22.8667 113 24.6 109.333 24.6 104.8C24.6 101.6 23.9333 99 22.6 97C21.2667 94.8667 18.8667 93 15.4 91.4C12.0667 89.6667 7.13334 87.8 0.600002 85.8C-15.1333 80.8667 -26.2 74.9333 -32.6 68C-39 61.0667 -42.2 52.3333 -42.2 41.8C-42.2 33.5333 -40 26.2667 -35.6 20C-31.0667 13.7333 -24.8667 8.93332 -17 5.59999C-9 2.13332 -0.0666649 0.399988 9.8 0.399988ZM114.816 3.99999V114.2H168.216L164.216 143H77.8156V3.99999H114.816ZM269.336 3.99999L265.536 30.2H218.136V59.8H259.536V85.2H218.136V116.8H268.736V143H181.136V3.99999H269.336ZM374.023 3.99999L370.223 30.2H322.823V59.8H364.223V85.2H322.823V116.8H373.423V143H285.823V3.99999H374.023ZM438.111 3.99999C456.778 3.99999 471.244 7.93332 481.511 15.8C491.911 23.5333 497.111 34.9333 497.111 50C497.111 65.7333 492.111 77.7333 482.111 86C472.111 94.1333 458.644 98.2 441.711 98.2H427.511V143H390.511V3.99999H438.111ZM438.311 71.8C445.244 71.8 450.444 70.0667 453.911 66.6C457.511 63.1333 459.311 57.6667 459.311 50.2C459.311 36.7333 452.044 30 437.511 30H427.511V71.8H438.311Z" fill="white"/>
</svg>
