<svg width="52" height="33" viewBox="0 0 52 33" fill="none" xmlns="http://www.w3.org/2000/svg">
<path fill-rule="evenodd" clip-rule="evenodd" d="M49.75 22.2762V25.0226L49.7496 25.0228C50.3199 25.1387 50.7496 25.6393 50.7496 26.2346V27.2223C50.7496 27.8214 50.3199 28.3201 49.7496 28.436V28.4612H43.1851C42.8218 30.7012 40.8628 32.4195 38.4995 32.4195C36.1362 32.4195 34.1773 30.7012 33.8159 28.4612H16.4349C16.0716 30.7012 14.1127 32.4195 11.7494 32.4195C9.38607 32.4195 7.42515 30.6993 7.06382 28.4612H3.24937L2.50132 28.4631C1.80992 28.4631 1.24937 27.9065 1.24937 27.2242V26.2365C1.24937 25.5523 1.81187 24.9976 2.50132 24.9976H3.24937V13.8668C3.24937 10.4554 6.05412 7.67992 9.50137 7.67992L15.2709 7.67605V5.70268C9.18537 5.12867 4.02892 4.05596 2.46837 2.51167C2.23595 2.28362 2.18126 1.93183 2.33361 1.64385C2.48596 1.3578 2.80629 1.19931 3.13051 1.25729C8.10701 2.13863 15.8455 2.25653 22.7555 2.25653C24.2243 2.25653 25.6677 2.25266 27.0544 2.24686C27.407 2.2458 27.7559 2.2446 28.1008 2.24341L28.1009 2.24341L28.101 2.24341L28.1011 2.24341L28.1014 2.24341L28.1017 2.24341L28.1017 2.24341C29.0154 2.24025 29.9006 2.2372 30.7497 2.2372L37.1872 2.23913H37.1891C41.5466 2.23913 44.2302 2.21014 47.7106 2.04199C48.0544 2.02843 48.3727 2.24877 48.4684 2.57928C48.5641 2.9098 48.4176 3.26351 48.1149 3.43166C47.6129 3.70998 46.9879 3.96896 46.2477 4.20863V5.71042C46.2477 6.37918 45.8883 6.95706 45.2848 7.25857C45.0289 7.38614 44.7594 7.44992 44.4918 7.44992C44.1286 7.44992 43.7672 7.33395 43.4547 7.10395L41.0348 5.32775C37.9528 5.7723 34.1365 6.05449 29.7498 6.15499V7.68187L34.9978 7.67994C38.3419 7.67994 41.4258 8.78743 43.9023 10.6487L44.1074 10.8072C46.1797 12.4209 47.8047 14.5721 48.7676 17.048L48.7734 17.0596L48.7871 17.0924C48.8007 17.1307 48.8154 17.1678 48.83 17.2048L48.8301 17.2049L48.8301 17.205L48.8302 17.2052L48.8302 17.2052L48.8303 17.2054C48.8429 17.2373 48.8555 17.269 48.8672 17.3012L49.166 18.0685H49.1231C49.5293 19.4021 49.75 20.815 49.75 22.2762ZM36.0001 16.586H46.9316H46.9319C46.092 14.8716 44.8811 13.3505 43.3792 12.1328H36.0001C35.8654 12.1328 35.7501 12.2469 35.7501 12.3802V16.3386C35.7501 16.4719 35.8654 16.586 36.0001 16.586ZM44.75 5.71043C44.75 5.81287 44.7051 5.88631 44.6113 5.9327C44.5176 5.97909 44.4336 5.97136 44.3496 5.90951L43.0918 4.98756C43.6817 4.87546 44.2344 4.75563 44.75 4.63L44.75 5.71043ZM26.0908 3.73607L26.0906 3.73607C25.0042 3.73941 23.8892 3.74284 22.758 3.74284L22.7585 3.7428C18.319 3.7428 13.5376 3.69255 9.33645 3.42389C13.3715 4.17771 19.1745 4.71114 26.0005 4.71114C32.2735 4.71114 37.7601 4.34782 41.7425 3.70805C40.385 3.72351 38.9182 3.72931 37.1917 3.72931H37.1897L30.7502 3.72351C29.5823 3.72351 28.3459 3.72738 27.0607 3.73318L26.0908 3.73607ZM16.7715 5.83606C19.7812 6.07379 22.957 6.19555 26 6.19555C26.7637 6.19555 27.5137 6.18975 28.25 6.18009V7.6799H16.7715V5.83606ZM8.5 27.7192C8.5 29.4935 9.95705 30.9354 11.75 30.9354C13.543 30.9354 15 29.4935 15 27.7192C15 25.9449 13.543 24.5031 11.75 24.5031C9.95705 24.5031 8.5 25.9449 8.5 27.7192ZM38.5 30.9354C36.7071 30.9354 35.25 29.4935 35.25 27.7192C35.25 25.9449 36.7071 24.5031 38.5 24.5031C40.2929 24.5031 41.75 25.9449 41.75 27.7192C41.75 29.4935 40.2929 30.9354 38.5 30.9354ZM38.5 23.0187C40.8633 23.0187 42.8242 24.7369 43.1856 26.977H49.25V26.4822H44.75V24.9979H48.25V22.2784C48.25 20.8056 48 19.3928 47.5469 18.0708H35.9999C35.035 18.0708 34.2499 17.2938 34.2499 16.339V12.3807C34.2499 11.4259 35.035 10.6489 35.9999 10.6489H41.1114C39.2811 9.70374 37.201 9.16452 34.9979 9.16452H9.50185C6.88075 9.16452 4.7499 11.2751 4.7499 13.867V16.5864H12.2849V18.0708H4.7499V24.9979H5.7499V26.4822H2.7499V26.977H7.06435C7.42765 24.7369 9.3866 23.0187 11.7499 23.0187C14.1132 23.0187 16.0741 24.7369 16.4354 26.977H33.8144C34.1777 24.7369 36.1367 23.0187 38.5 23.0187Z" fill="white"/>
<path d="M49.75 25.0226L49.8336 25.3108L50.05 25.248V25.0226H49.75ZM49.7496 25.0228L49.666 24.7347L49.6898 25.3168L49.7496 25.0228ZM49.7496 28.436L49.6898 28.1421L49.4496 28.1909V28.436H49.7496ZM49.7496 28.4612V28.7612H50.0496V28.4612H49.7496ZM43.1851 28.4612V28.1612H42.9298L42.8889 28.4131L43.1851 28.4612ZM33.8159 28.4612L34.1121 28.4134L34.0714 28.1612H33.8159V28.4612ZM16.4349 28.4612V28.1612H16.1797L16.1388 28.4131L16.4349 28.4612ZM7.06382 28.4612L7.35999 28.4134L7.31928 28.1612H7.06382V28.4612ZM3.24937 28.4612V28.1612L3.2486 28.1612L3.24937 28.4612ZM2.50132 28.4631V28.7631L2.5021 28.7631L2.50132 28.4631ZM3.24937 24.9976V25.2976H3.54937V24.9976H3.24937ZM9.50137 7.67992V7.97992L9.50158 7.97992L9.50137 7.67992ZM15.2709 7.67605L15.2711 7.97605L15.5709 7.97585V7.67605H15.2709ZM15.2709 5.70268H15.5709V5.42964L15.299 5.404L15.2709 5.70268ZM2.46837 2.51167L2.67939 2.29842L2.67848 2.29753L2.46837 2.51167ZM2.33361 1.64385L2.06882 1.50283L2.06843 1.50357L2.33361 1.64385ZM3.13051 1.25729L3.07769 1.55261L3.07819 1.5527L3.13051 1.25729ZM27.0544 2.24686L27.0535 1.94686L27.0531 1.94686L27.0544 2.24686ZM28.1008 2.24341L28.1018 2.54341L28.1019 2.54341L28.1008 2.24341ZM28.1011 2.24341L28.1 1.94341L28.1 1.94341L28.1011 2.24341ZM28.1014 2.24341L28.1005 1.94341L28.1004 1.94341L28.1014 2.24341ZM28.1017 2.24341L28.1026 2.5434L28.1028 2.5434L28.1017 2.24341ZM28.1017 2.24341L28.1007 1.94341L28.1006 1.94341L28.1017 2.24341ZM30.7497 2.2372L30.7497 1.9372H30.7497V2.2372ZM37.1872 2.23913L37.1871 2.53913H37.1872V2.23913ZM47.7106 2.04199L47.6988 1.74221L47.6961 1.74234L47.7106 2.04199ZM48.4684 2.57928L48.7566 2.49584V2.49584L48.4684 2.57928ZM48.1149 3.43166L48.2604 3.69403L48.2606 3.69392L48.1149 3.43166ZM46.2477 4.20863L46.1553 3.92322L45.9477 3.99043V4.20863H46.2477ZM45.2848 7.25857L45.4187 7.52706L45.4189 7.52694L45.2848 7.25857ZM43.4547 7.10395L43.6326 6.86234L43.6323 6.86211L43.4547 7.10395ZM41.0348 5.32775L41.2124 5.0859L41.1135 5.01331L40.992 5.03082L41.0348 5.32775ZM29.7498 6.15499L29.743 5.85507L29.4498 5.86179V6.15499H29.7498ZM29.7498 7.68187H29.4498V7.98198L29.75 7.98187L29.7498 7.68187ZM34.9978 7.67994V7.37994H34.9977L34.9978 7.67994ZM43.9023 10.6487L44.0858 10.4113L44.0826 10.4089L43.9023 10.6487ZM44.1074 10.8072L44.2917 10.5705L44.2909 10.5698L44.1074 10.8072ZM48.7676 17.048L48.488 17.1567L48.4933 17.1703L48.4998 17.1833L48.7676 17.048ZM48.7734 17.0596L49.0504 16.9443L49.0462 16.9341L49.0412 16.9243L48.7734 17.0596ZM48.7871 17.0924L49.0698 16.9921L49.0672 16.9846L49.0641 16.9772L48.7871 17.0924ZM48.83 17.2048L48.5511 17.3152L48.5515 17.3162L48.83 17.2048ZM48.8301 17.2049L49.1099 17.0966L49.1086 17.0935L48.8301 17.2049ZM48.8301 17.205L48.5503 17.3133L48.5516 17.3164L48.8301 17.205ZM48.8302 17.2052L49.11 17.0968L49.1087 17.0937L48.8302 17.2052ZM48.8302 17.2052L48.5504 17.3135L48.5517 17.3167L48.8302 17.2052ZM48.8303 17.2054L49.1092 17.0949L49.1088 17.094L48.8303 17.2054ZM48.8672 17.3012L48.5853 17.404L48.5876 17.41L48.8672 17.3012ZM49.166 18.0685V18.3685H49.6048L49.4456 17.9596L49.166 18.0685ZM49.1231 18.0685V17.7685H48.7181L48.8361 18.1559L49.1231 18.0685ZM46.9319 16.586V16.886H47.4129L47.2013 16.454L46.9319 16.586ZM43.3792 12.1328L43.5681 11.8998L43.4855 11.8328H43.3792V12.1328ZM44.6113 5.9327L44.4783 5.66381L44.4783 5.66382L44.6113 5.9327ZM44.75 5.71043L44.45 5.71043V5.71043H44.75ZM44.3496 5.90951L44.5275 5.66794L44.527 5.66754L44.3496 5.90951ZM43.0918 4.98756L43.0358 4.69284L42.358 4.82165L42.9145 5.22952L43.0918 4.98756ZM44.75 4.63L45.05 4.63L45.05 4.24812L44.679 4.33852L44.75 4.63ZM26.0906 3.73607L26.0915 4.03607L26.0918 4.03607L26.0906 3.73607ZM26.0908 3.73607L26.0899 3.43607L26.0896 3.43607L26.0908 3.73607ZM22.758 3.74284L22.7309 3.44407L22.758 4.04284V3.74284ZM22.7585 3.7428L22.7856 4.04157L22.7585 3.4428V3.7428ZM9.33645 3.42389L9.3556 3.1245L9.28136 3.71879L9.33645 3.42389ZM41.7425 3.70805L41.79 4.00425L41.739 3.40807L41.7425 3.70805ZM37.1897 3.72931L37.1894 4.02931H37.1897V3.72931ZM30.7502 3.72351L30.7505 3.42351H30.7502V3.72351ZM27.0607 3.73318L27.0616 4.03318L27.0621 4.03317L27.0607 3.73318ZM16.7715 5.83606L16.7951 5.53699L16.4715 5.51143V5.83606H16.7715ZM28.25 6.18009H28.55V5.87613L28.2461 5.88012L28.25 6.18009ZM28.25 7.6799V7.9799H28.55V7.6799H28.25ZM16.7715 7.6799H16.4715V7.9799H16.7715V7.6799ZM43.1856 26.977L42.8894 27.0248L42.9301 27.277H43.1856V26.977ZM49.25 26.977V27.277H49.5499V26.977H49.25ZM49.25 26.4822H49.5499V26.1822H49.25V26.4822ZM44.75 26.4822H44.45V26.7822H44.75V26.4822ZM44.75 24.9979V24.6979H44.45V24.9979H44.75ZM48.25 24.9979V25.2979H48.5499V24.9979H48.25ZM47.5469 18.0708L47.8306 17.9735L47.7612 17.7708H47.5469V18.0708ZM41.1114 10.6489V10.9489L41.249 10.3823L41.1114 10.6489ZM4.7499 16.5864H4.4499V16.8864H4.7499V16.5864ZM12.2849 16.5864H12.5849V16.2864H12.2849V16.5864ZM12.2849 18.0708V18.3708H12.5849V18.0708H12.2849ZM4.7499 18.0708V17.7708H4.4499V18.0708H4.7499ZM4.7499 24.9979H4.4499V25.2979H4.7499V24.9979ZM5.7499 24.9979H6.0499V24.6979H5.7499V24.9979ZM5.7499 26.4822V26.7822H6.0499V26.4822H5.7499ZM2.7499 26.4822V26.1822H2.4499V26.4822H2.7499ZM2.7499 26.977H2.4499V27.277H2.7499V26.977ZM7.06435 26.977V27.277H7.31962L7.36048 27.025L7.06435 26.977ZM16.4354 26.977L16.1393 27.0248L16.18 27.277H16.4354V26.977ZM33.8144 26.977V27.277H34.0697L34.1106 27.025L33.8144 26.977ZM50.05 25.0226V22.2762H49.45V25.0226H50.05ZM49.8332 25.3109L49.8336 25.3108L49.6664 24.7345L49.666 24.7347L49.8332 25.3109ZM51.0496 26.2346C51.0496 25.4913 50.5141 24.8721 49.8094 24.7288L49.6898 25.3168C50.1257 25.4054 50.4496 25.7874 50.4496 26.2346H51.0496ZM51.0496 27.2223V26.2346H50.4496V27.2223H51.0496ZM49.8094 28.73C50.5141 28.5867 51.0496 27.9695 51.0496 27.2223H50.4496C50.4496 27.6733 50.1257 28.0534 49.6898 28.1421L49.8094 28.73ZM50.0496 28.4612V28.436H49.4496V28.4612H50.0496ZM43.1851 28.7612H49.7496V28.1612H43.1851V28.7612ZM38.4995 32.7195C41.011 32.7195 43.0945 30.8935 43.4812 28.5092L42.8889 28.4131C42.549 30.509 40.7146 32.1195 38.4995 32.1195V32.7195ZM33.5198 28.5089C33.9044 30.8935 35.9881 32.7195 38.4995 32.7195V32.1195C36.2844 32.1195 34.4501 30.509 34.1121 28.4134L33.5198 28.5089ZM16.4349 28.7612H33.8159V28.1612H16.4349V28.7612ZM11.7494 32.7195C14.2609 32.7195 16.3444 30.8935 16.7311 28.5092L16.1388 28.4131C15.7989 30.509 13.9645 32.1195 11.7494 32.1195V32.7195ZM6.76766 28.509C7.15232 30.8916 9.23798 32.7195 11.7494 32.7195V32.1195C9.53417 32.1195 7.69799 30.507 7.35999 28.4134L6.76766 28.509ZM3.24937 28.7612H7.06382V28.1612H3.24937V28.7612ZM2.5021 28.7631L3.25015 28.7612L3.2486 28.1612L2.50055 28.1631L2.5021 28.7631ZM0.949374 27.2242C0.949374 28.0748 1.6469 28.7631 2.50132 28.7631V28.1631C1.97295 28.1631 1.54937 27.7381 1.54937 27.2242H0.949374ZM0.949374 26.2365V27.2242H1.54937V26.2365H0.949374ZM2.50132 24.6976C1.64946 24.6976 0.949374 25.3834 0.949374 26.2365H1.54937C1.54937 25.7213 1.97428 25.2976 2.50132 25.2976V24.6976ZM3.24937 24.6976H2.50132V25.2976H3.24937V24.6976ZM2.94937 13.8668V24.9976H3.54937V13.8668H2.94937ZM9.50137 7.37992C5.89141 7.37992 2.94937 10.2868 2.94937 13.8668H3.54937C3.54937 10.624 6.21684 7.97992 9.50137 7.97992V7.37992ZM15.2707 7.37605L9.50117 7.37992L9.50158 7.97992L15.2711 7.97605L15.2707 7.37605ZM14.9709 5.70268V7.67605H15.5709V5.70268H14.9709ZM2.25736 2.72491C2.6884 3.15146 3.34533 3.52608 4.15768 3.85867C4.97482 4.19323 5.97194 4.49427 7.10347 4.76291C9.3668 5.30026 12.1923 5.71362 15.2427 6.00135L15.299 5.404C12.264 5.11772 9.46847 4.70772 7.24207 4.17914C6.12873 3.91482 5.16379 3.62225 4.38502 3.30341C3.60145 2.9826 3.02862 2.64402 2.67939 2.29843L2.25736 2.72491ZM2.06843 1.50357C1.85403 1.90885 1.9311 2.40479 2.25827 2.7258L2.67848 2.29753C2.54081 2.16245 2.5085 1.95482 2.59879 1.78413L2.06843 1.50357ZM3.18332 0.96198C2.73017 0.880936 2.28197 1.10261 2.06882 1.50283L2.5984 1.78487C2.68995 1.61298 2.88241 1.51768 3.07769 1.55261L3.18332 0.96198ZM22.7555 1.95653C15.8392 1.95653 8.12848 1.83776 3.18282 0.961891L3.07819 1.5527C8.08554 2.43949 15.8518 2.55653 22.7555 2.55653V1.95653ZM27.0531 1.94686C25.6667 1.95266 24.2237 1.95653 22.7555 1.95653V2.55653C24.2248 2.55653 25.6686 2.55266 27.0556 2.54686L27.0531 1.94686ZM28.0998 1.94341C27.7549 1.9446 27.406 1.9458 27.0535 1.94686L27.0553 2.54686C27.4079 2.5458 27.757 2.5446 28.1018 2.54341L28.0998 1.94341ZM28.0998 1.94341L28.0997 1.94341L28.1019 2.54341L28.102 2.54341L28.0998 1.94341ZM28.0999 1.94341L28.0998 1.94341L28.102 2.54341L28.1021 2.54341L28.0999 1.94341ZM28.1 1.94341L28.0999 1.94341L28.1021 2.54341L28.1022 2.54341L28.1 1.94341ZM28.1004 1.94341L28.1 1.94341L28.1021 2.54341L28.1025 2.54341L28.1004 1.94341ZM28.1007 1.94341L28.1005 1.94341L28.1024 2.54341L28.1026 2.5434L28.1007 1.94341ZM28.1006 1.94341L28.1005 1.94341L28.1028 2.5434L28.1029 2.5434L28.1006 1.94341ZM30.7497 1.9372C29.8999 1.9372 29.0143 1.94026 28.1007 1.94341L28.1028 2.5434C29.0166 2.54025 29.9012 2.5372 30.7497 2.5372V1.9372ZM37.1873 1.93913L30.7497 1.9372L30.7496 2.5372L37.1871 2.53913L37.1873 1.93913ZM37.1891 1.93913H37.1872V2.53913H37.1891V1.93913ZM47.6961 1.74234C44.2229 1.91014 41.545 1.93913 37.1891 1.93913V2.53913C41.5482 2.53913 44.2374 2.51014 47.7251 2.34164L47.6961 1.74234ZM48.7566 2.49584C48.6209 2.02734 48.1746 1.72345 47.6988 1.74222L47.7224 2.34175C47.9341 2.3334 48.1245 2.47021 48.1802 2.66272L48.7566 2.49584ZM48.2606 3.69392C48.6847 3.45835 48.8915 2.96172 48.7566 2.49584L48.1802 2.66272C48.2368 2.85789 48.1506 3.06867 47.9692 3.1694L48.2606 3.69392ZM46.3401 4.49404C47.0922 4.25053 47.7364 3.98454 48.2604 3.69403L47.9694 3.16929C47.4895 3.43542 46.8837 3.6874 46.1553 3.92322L46.3401 4.49404ZM46.5477 5.71042V4.20863H45.9477V5.71042H46.5477ZM45.4189 7.52694C46.1229 7.17519 46.5477 6.4941 46.5477 5.71042H45.9477C45.9477 6.26426 45.6537 6.73893 45.1507 6.99021L45.4189 7.52694ZM44.4918 7.74992C44.8077 7.74992 45.1229 7.67453 45.4187 7.52706L45.1509 6.99009C44.935 7.09774 44.7112 7.14992 44.4918 7.14992V7.74992ZM43.2769 7.34557C43.6403 7.61304 44.0639 7.74992 44.4918 7.74992V7.14992C44.1933 7.14992 43.8942 7.05486 43.6326 6.86234L43.2769 7.34557ZM40.8573 5.56959L43.2772 7.3458L43.6323 6.86211L41.2124 5.0859L40.8573 5.56959ZM29.7567 6.45491C34.1512 6.35423 37.9802 6.07146 41.0777 5.62468L40.992 5.03082C37.9255 5.47314 34.1219 5.75475 29.743 5.85507L29.7567 6.45491ZM30.0498 7.68187V6.15499H29.4498V7.68187H30.0498ZM34.9977 7.37994L29.7497 7.38187L29.75 7.98187L34.998 7.97994L34.9977 7.37994ZM44.0826 10.4089C41.5559 8.50995 38.4092 7.37994 34.9978 7.37994V7.97994C38.2745 7.97994 41.2957 9.0649 43.7221 10.8885L44.0826 10.4089ZM44.2909 10.5698L44.0858 10.4113L43.7189 10.8861L43.924 11.0445L44.2909 10.5698ZM49.0472 16.9392C48.0642 14.4118 46.4058 12.2167 44.2917 10.5705L43.9231 11.0439C45.9535 12.625 47.5451 14.7324 48.488 17.1567L49.0472 16.9392ZM49.0412 16.9243L49.0353 16.9127L48.4998 17.1833L48.5057 17.1949L49.0412 16.9243ZM49.0641 16.9772L49.0504 16.9443L48.4965 17.1748L48.5101 17.2077L49.0641 16.9772ZM49.109 17.0943C49.094 17.0566 49.0813 17.0244 49.0698 16.9921L48.5044 17.1928C48.5201 17.2369 48.5368 17.279 48.5511 17.3152L49.109 17.0943ZM49.1086 17.0935L49.1086 17.0934L48.5515 17.3162L48.5515 17.3163L49.1086 17.0935ZM49.1099 17.0967L49.1098 17.0966L48.5503 17.3132L48.5503 17.3133L49.1099 17.0967ZM49.1087 17.0937L49.1087 17.0936L48.5516 17.3164L48.5516 17.3166L49.1087 17.0937ZM49.11 17.0969L49.1099 17.0969L48.5504 17.3134L48.5504 17.3135L49.11 17.0969ZM49.1088 17.094L49.1087 17.0938L48.5517 17.3167L48.5517 17.3168L49.1088 17.094ZM49.149 17.1983C49.1357 17.1617 49.1216 17.1262 49.1092 17.0949L48.5513 17.3158C48.5642 17.3483 48.5753 17.3763 48.5854 17.404L49.149 17.1983ZM49.4456 17.9596L49.1467 17.1923L48.5876 17.41L48.8865 18.1774L49.4456 17.9596ZM49.1231 18.3685H49.166V17.7685H49.1231V18.3685ZM50.05 22.2762C50.05 20.7846 49.8247 19.3423 49.41 17.9811L48.8361 18.1559C49.2339 19.4619 49.45 20.8453 49.45 22.2762H50.05ZM46.9316 16.286H36.0001V16.886H46.9316V16.286ZM46.9319 16.286H46.9316V16.886H46.9319V16.286ZM43.1902 12.3659C44.6585 13.5562 45.8419 15.0429 46.6625 16.7179L47.2013 16.454C46.3422 14.7003 45.1037 13.1447 43.5681 11.8998L43.1902 12.3659ZM36.0001 12.4328H43.3792V11.8328H36.0001V12.4328ZM36.0501 12.3802C36.0501 12.4012 36.0413 12.4141 36.0356 12.4198C36.03 12.4254 36.0183 12.4328 36.0001 12.4328V11.8328C35.7027 11.8328 35.4501 12.0782 35.4501 12.3802H36.0501ZM36.0501 16.3386V12.3802H35.4501V16.3386H36.0501ZM36.0001 16.286C36.0183 16.286 36.03 16.2934 36.0356 16.299C36.0413 16.3046 36.0501 16.3176 36.0501 16.3386H35.4501C35.4501 16.6406 35.7027 16.886 36.0001 16.886V16.286ZM44.7444 6.20159C44.8315 6.15849 44.9129 6.09389 44.9707 6.00082C45.0285 5.90775 45.05 5.8065 45.05 5.71043H44.45C44.45 5.71416 44.4496 5.71248 44.451 5.70695C44.4525 5.70108 44.4556 5.69299 44.4609 5.68435C44.4663 5.6757 44.4722 5.66948 44.4766 5.66567C44.4807 5.6621 44.4821 5.66193 44.4783 5.66381L44.7444 6.20159ZM44.1717 6.15107C44.248 6.20726 44.3411 6.25075 44.4501 6.2605C44.5592 6.27026 44.6588 6.24393 44.7444 6.20158L44.4783 5.66382C44.4737 5.66608 44.4742 5.66521 44.4794 5.66411C44.4849 5.66291 44.4934 5.66197 44.5035 5.66289C44.5137 5.6638 44.5218 5.66621 44.5269 5.66829C44.5315 5.67022 44.5318 5.67107 44.5275 5.66794L44.1717 6.15107ZM42.9145 5.22952L44.1723 6.15147L44.527 5.66754L43.2692 4.7456L42.9145 5.22952ZM44.679 4.33852C44.1687 4.46287 43.6209 4.58164 43.0358 4.69284L43.1478 5.28229C43.7424 5.16929 44.3002 5.04838 44.821 4.92147L44.679 4.33852ZM45.05 5.71043L45.05 4.63L44.45 4.62999L44.45 5.71043L45.05 5.71043ZM26.0918 4.03607L26.092 4.03607L26.0896 3.43607L26.0894 3.43607L26.0918 4.03607ZM22.758 4.04284C23.8897 4.04284 25.0052 4.03941 26.0915 4.03607L26.0897 3.43607C25.0032 3.43941 23.8887 3.44284 22.758 3.44284V4.04284ZM22.7313 3.44403L22.7309 3.44407L22.7851 4.04161L22.7856 4.04157L22.7313 3.44403ZM9.31731 3.72328C13.5286 3.99259 18.3181 4.0428 22.7585 4.0428V3.4428C18.3198 3.4428 13.5466 3.39251 9.3556 3.1245L9.31731 3.72328ZM26.0005 4.41114C19.188 4.41114 13.4041 3.87862 9.39155 3.12899L9.28136 3.71879C13.3388 4.47679 19.1609 5.01114 26.0005 5.01114V4.41114ZM41.6949 3.41185C37.7337 4.0482 32.2643 4.41114 26.0005 4.41114V5.01114C32.2826 5.01114 37.7864 4.64743 41.79 4.00425L41.6949 3.41185ZM37.1917 4.02931C38.9188 4.02931 40.3869 4.02351 41.7459 4.00803L41.739 3.40807C40.3832 3.42352 38.9176 3.42931 37.1917 3.42931V4.02931ZM37.1897 4.02931H37.1917V3.42931H37.1897V4.02931ZM30.7499 4.02351L37.1894 4.02931L37.19 3.42931L30.7505 3.42351L30.7499 4.02351ZM27.0621 4.03317C28.347 4.02738 29.5829 4.02351 30.7502 4.02351V3.42351C29.5816 3.42351 28.3448 3.42738 27.0594 3.43318L27.0621 4.03317ZM26.0917 4.03607L27.0616 4.03318L27.0599 3.43318L26.0899 3.43607L26.0917 4.03607ZM26 5.89555C22.9646 5.89555 19.7968 5.77408 16.7951 5.53699L16.7479 6.13513C19.7657 6.3735 22.9494 6.49555 26 6.49555V5.89555ZM28.2461 5.88012C27.5108 5.88977 26.7621 5.89555 26 5.89555V6.49555C26.7652 6.49555 27.5165 6.48974 28.2539 6.48007L28.2461 5.88012ZM28.55 7.6799V6.18009H27.95V7.6799H28.55ZM16.7715 7.9799H28.25V7.3799H16.7715V7.9799ZM16.4715 5.83606V7.6799H17.0715V5.83606H16.4715ZM11.75 30.6354C10.1198 30.6354 8.8 29.3248 8.8 27.7192H8.2C8.2 29.6621 9.79433 31.2354 11.75 31.2354V30.6354ZM14.7 27.7192C14.7 29.3248 13.3802 30.6354 11.75 30.6354V31.2354C13.7057 31.2354 15.3 29.6621 15.3 27.7192H14.7ZM11.75 24.8031C13.3802 24.8031 14.7 26.1136 14.7 27.7192H15.3C15.3 25.7763 13.7057 24.2031 11.75 24.2031V24.8031ZM8.8 27.7192C8.8 26.1136 10.1198 24.8031 11.75 24.8031V24.2031C9.79433 24.2031 8.2 25.7763 8.2 27.7192H8.8ZM34.95 27.7192C34.95 29.6621 36.5443 31.2354 38.5 31.2354V30.6354C36.8698 30.6354 35.55 29.3248 35.55 27.7192H34.95ZM38.5 24.2031C36.5443 24.2031 34.95 25.7763 34.95 27.7192H35.55C35.55 26.1136 36.8698 24.8031 38.5 24.8031V24.2031ZM42.05 27.7192C42.05 25.7763 40.4557 24.2031 38.5 24.2031V24.8031C40.1302 24.8031 41.45 26.1136 41.45 27.7192H42.05ZM38.5 31.2354C40.4557 31.2354 42.05 29.6621 42.05 27.7192H41.45C41.45 29.3248 40.1302 30.6354 38.5 30.6354V31.2354ZM43.4817 26.9292C43.0971 24.5445 41.0113 22.7187 38.5 22.7187V23.3187C40.7153 23.3187 42.5514 24.9294 42.8894 27.0248L43.4817 26.9292ZM49.25 26.677H43.1856V27.277H49.25V26.677ZM48.95 26.4822V26.977H49.5499V26.4822H48.95ZM44.75 26.7822H49.25V26.1822H44.75V26.7822ZM44.45 24.9979V26.4822H45.0499V24.9979H44.45ZM48.25 24.6979H44.75V25.2979H48.25V24.6979ZM47.95 22.2784V24.9979H48.5499V22.2784H47.95ZM47.2631 18.168C47.7058 19.4599 47.95 20.8399 47.95 22.2784H48.5499C48.5499 20.7714 48.2941 19.3257 47.8306 17.9735L47.2631 18.168ZM35.9999 18.3708H47.5469V17.7708H35.9999V18.3708ZM33.9499 16.339C33.9499 17.4624 34.8723 18.3708 35.9999 18.3708V17.7708C35.1977 17.7708 34.5499 17.1252 34.5499 16.339H33.9499ZM33.9499 12.3807V16.339H34.5499V12.3807H33.9499ZM35.9999 10.3489C34.8723 10.3489 33.9499 11.2572 33.9499 12.3807H34.5499C34.5499 11.5945 35.1977 10.9489 35.9999 10.9489V10.3489ZM41.1114 10.3489H35.9999V10.9489H41.1114V10.3489ZM34.9979 9.46452C37.1515 9.46452 39.1846 9.99156 40.9737 10.9155L41.249 10.3823C39.3775 9.41593 37.2504 8.86452 34.9979 8.86452V9.46452ZM9.50185 9.46452H34.9979V8.86452H9.50185V9.46452ZM5.0499 13.867C5.0499 11.4437 7.04355 9.46452 9.50185 9.46452V8.86452C6.71795 8.86452 4.4499 11.1065 4.4499 13.867H5.0499ZM5.0499 16.5864V13.867H4.4499V16.5864H5.0499ZM12.2849 16.2864H4.7499V16.8864H12.2849V16.2864ZM12.5849 18.0708V16.5864H11.9849V18.0708H12.5849ZM4.7499 18.3708H12.2849V17.7708H4.7499V18.3708ZM5.0499 24.9979V18.0708H4.4499V24.9979H5.0499ZM5.7499 24.6979H4.7499V25.2979H5.7499V24.6979ZM6.0499 26.4822V24.9979H5.4499V26.4822H6.0499ZM2.7499 26.7822H5.7499V26.1822H2.7499V26.7822ZM3.0499 26.977V26.4822H2.4499V26.977H3.0499ZM7.06435 26.677H2.7499V27.277H7.06435V26.677ZM11.7499 22.7187C9.23841 22.7187 7.15491 24.5447 6.76822 26.929L7.36048 27.025C7.70039 24.9292 9.53479 23.3187 11.7499 23.3187V22.7187ZM16.7316 26.9292C16.347 24.5445 14.2612 22.7187 11.7499 22.7187V23.3187C13.9652 23.3187 15.8013 24.9294 16.1393 27.0248L16.7316 26.9292ZM33.8144 26.677H16.4354V27.277H33.8144V26.677ZM38.5 22.7187C35.9885 22.7187 33.905 24.5447 33.5183 26.929L34.1106 27.025C34.4505 24.9292 36.2849 23.3187 38.5 23.3187V22.7187Z" fill="#222532"/>
<path fill-rule="evenodd" clip-rule="evenodd" d="M23.75 12.3802V16.3385C23.75 17.2933 22.9648 18.0703 22 18.0703H17C16.0351 18.0703 15.25 17.2933 15.25 16.3385V12.3802C15.25 11.4254 16.0351 10.6484 17 10.6484H22C22.9648 10.6484 23.75 11.4254 23.75 12.3802ZM16.75 12.3802V16.3385C16.75 16.4738 16.8652 16.5859 17 16.5859H22C22.1348 16.5859 22.25 16.4719 22.25 16.3385V12.3802C22.25 12.2468 22.1348 12.1328 22 12.1328H17C16.8652 12.1328 16.75 12.2468 16.75 12.3802Z" fill="white"/>
<path d="M24.05 16.3385V12.3802H23.45V16.3385H24.05ZM22 18.3703C23.1276 18.3703 24.05 17.462 24.05 16.3385H23.45C23.45 17.1247 22.8021 17.7703 22 17.7703V18.3703ZM17 18.3703H22V17.7703H17V18.3703ZM14.95 16.3385C14.95 17.462 15.8724 18.3703 17 18.3703V17.7703C16.1979 17.7703 15.55 17.1247 15.55 16.3385H14.95ZM14.95 12.3802V16.3385H15.55V12.3802H14.95ZM17 10.3484C15.8724 10.3484 14.95 11.2568 14.95 12.3802H15.55C15.55 11.594 16.1979 10.9484 17 10.9484V10.3484ZM22 10.3484H17V10.9484H22V10.3484ZM24.05 12.3802C24.05 11.2568 23.1276 10.3484 22 10.3484V10.9484C22.8021 10.9484 23.45 11.594 23.45 12.3802H24.05ZM17.05 16.3385V12.3802H16.45V16.3385H17.05ZM17 16.2859C17.0167 16.2859 17.0284 16.2927 17.0349 16.2992C17.0417 16.3059 17.05 16.3192 17.05 16.3385H16.45C16.45 16.644 16.704 16.8859 17 16.8859V16.2859ZM22 16.2859H17V16.8859H22V16.2859ZM21.95 16.3385C21.95 16.3175 21.9589 16.3046 21.9645 16.299C21.9702 16.2934 21.9818 16.2859 22 16.2859V16.8859C22.2975 16.8859 22.55 16.6405 22.55 16.3385H21.95ZM21.95 12.3802V16.3385H22.55V12.3802H21.95ZM22 12.4328C21.9818 12.4328 21.9702 12.4254 21.9645 12.4197C21.9589 12.4141 21.95 12.4012 21.95 12.3802H22.55C22.55 12.0782 22.2975 11.8328 22 11.8328V12.4328ZM17 12.4328H22V11.8328H17V12.4328ZM17.05 12.3802C17.05 12.4012 17.0411 12.4141 17.0355 12.4197C17.0298 12.4254 17.0182 12.4328 17 12.4328V11.8328C16.7025 11.8328 16.45 12.0782 16.45 12.3802H17.05Z" fill="#222532"/>
<path fill-rule="evenodd" clip-rule="evenodd" d="M26.5 10.6484H31.5C32.4648 10.6484 33.25 11.4254 33.25 12.3802V16.3385C33.25 17.2933 32.4648 18.0703 31.5 18.0703H26.5C25.5351 18.0703 24.75 17.2933 24.75 16.3385V12.3802C24.75 11.4254 25.5351 10.6484 26.5 10.6484ZM31.5 16.5859C31.6348 16.5859 31.75 16.4719 31.75 16.3385V12.3802C31.75 12.2468 31.6348 12.1328 31.5 12.1328H26.5C26.3652 12.1328 26.25 12.2468 26.25 12.3802V16.3385C26.25 16.4719 26.3652 16.5859 26.5 16.5859H31.5Z" fill="white"/>
<path d="M31.5 10.3484H26.5V10.9484H31.5V10.3484ZM33.55 12.3802C33.55 11.2568 32.6276 10.3484 31.5 10.3484V10.9484C32.3021 10.9484 32.95 11.594 32.95 12.3802H33.55ZM33.55 16.3385V12.3802H32.95V16.3385H33.55ZM31.5 18.3703C32.6276 18.3703 33.55 17.462 33.55 16.3385H32.95C32.95 17.1247 32.3021 17.7703 31.5 17.7703V18.3703ZM26.5 18.3703H31.5V17.7703H26.5V18.3703ZM24.45 16.3385C24.45 17.462 25.3724 18.3703 26.5 18.3703V17.7703C25.6979 17.7703 25.05 17.1247 25.05 16.3385H24.45ZM24.45 12.3802V16.3385H25.05V12.3802H24.45ZM26.5 10.3484C25.3724 10.3484 24.45 11.2568 24.45 12.3802H25.05C25.05 11.594 25.6979 10.9484 26.5 10.9484V10.3484ZM31.45 16.3385C31.45 16.3175 31.4589 16.3046 31.4645 16.299C31.4702 16.2934 31.4818 16.2859 31.5 16.2859V16.8859C31.7975 16.8859 32.05 16.6405 32.05 16.3385H31.45ZM31.45 12.3802V16.3385H32.05V12.3802H31.45ZM31.5 12.4328C31.4818 12.4328 31.4702 12.4254 31.4645 12.4197C31.4589 12.4141 31.45 12.4012 31.45 12.3802H32.05C32.05 12.0782 31.7975 11.8328 31.5 11.8328V12.4328ZM26.5 12.4328H31.5V11.8328H26.5V12.4328ZM26.55 12.3802C26.55 12.4012 26.5411 12.4141 26.5355 12.4197C26.5298 12.4254 26.5182 12.4328 26.5 12.4328V11.8328C26.2025 11.8328 25.95 12.0782 25.95 12.3802H26.55ZM26.55 16.3385V12.3802H25.95V16.3385H26.55ZM26.5 16.2859C26.5182 16.2859 26.5298 16.2934 26.5355 16.299C26.5411 16.3046 26.55 16.3175 26.55 16.3385H25.95C25.95 16.6405 26.2025 16.8859 26.5 16.8859V16.2859ZM31.5 16.2859H26.5V16.8859H31.5V16.2859Z" fill="#222532"/>
<path fill-rule="evenodd" clip-rule="evenodd" d="M36.5 27.7188C36.5 26.6268 37.3965 25.7396 38.5 25.7396C39.6035 25.7396 40.5 26.6287 40.5 27.7188C40.5 28.8108 39.6035 29.698 38.5 29.698C37.3965 29.698 36.5 28.8108 36.5 27.7188ZM38 27.7188C38 27.9913 38.2246 28.2136 38.5 28.2136C38.7754 28.2136 39 27.9913 39 27.7188C39 27.4463 38.7754 27.224 38.5 27.224C38.2246 27.224 38 27.4463 38 27.7188Z" fill="white"/>
<path d="M38.5 25.4396C37.2338 25.4396 36.2 26.4581 36.2 27.7188H36.8C36.8 26.7954 37.5592 26.0396 38.5 26.0396V25.4396ZM40.8 27.7188C40.8 26.4603 39.7664 25.4396 38.5 25.4396V26.0396C39.4406 26.0396 40.2 26.7972 40.2 27.7188H40.8ZM38.5 29.998C39.7662 29.998 40.8 28.9794 40.8 27.7188H40.2C40.2 28.6422 39.4408 29.398 38.5 29.398V29.998ZM36.2 27.7188C36.2 28.9794 37.2338 29.998 38.5 29.998V29.398C37.5592 29.398 36.8 28.6422 36.8 27.7188H36.2ZM38.5 27.9136C38.3873 27.9136 38.3 27.8227 38.3 27.7188H37.7C37.7 28.16 38.0619 28.5136 38.5 28.5136V27.9136ZM38.7 27.7188C38.7 27.8227 38.6127 27.9136 38.5 27.9136V28.5136C38.9381 28.5136 39.3 28.16 39.3 27.7188H38.7ZM38.5 27.524C38.6127 27.524 38.7 27.6149 38.7 27.7188H39.3C39.3 27.2776 38.9381 26.924 38.5 26.924V27.524ZM38.3 27.7188C38.3 27.6149 38.3873 27.524 38.5 27.524V26.924C38.0619 26.924 37.7 27.2776 37.7 27.7188H38.3Z" fill="#222532"/>
<path fill-rule="evenodd" clip-rule="evenodd" d="M9.75 27.7188C9.75 26.6268 10.6465 25.7396 11.75 25.7396C12.8535 25.7396 13.75 26.6287 13.75 27.7188C13.75 28.8108 12.8535 29.698 11.75 29.698C10.6465 29.698 9.75 28.8089 9.75 27.7188ZM11.25 27.7188C11.25 27.9913 11.4746 28.2136 11.75 28.2136C12.0254 28.2136 12.25 27.9913 12.25 27.7188C12.25 27.4463 12.0254 27.224 11.75 27.224C11.4746 27.224 11.25 27.4463 11.25 27.7188Z" fill="white"/>
<path d="M11.75 25.4396C10.4838 25.4396 9.45 26.4581 9.45 27.7188H10.05C10.05 26.7954 10.8092 26.0396 11.75 26.0396V25.4396ZM14.05 27.7188C14.05 26.4603 13.0164 25.4396 11.75 25.4396V26.0396C12.6906 26.0396 13.45 26.7972 13.45 27.7188H14.05ZM11.75 29.998C13.0162 29.998 14.05 28.9794 14.05 27.7188H13.45C13.45 28.6422 12.6908 29.398 11.75 29.398V29.998ZM9.45 27.7188C9.45 28.9773 10.4836 29.998 11.75 29.998V29.398C10.8094 29.398 10.05 28.6404 10.05 27.7188H9.45ZM11.75 27.9136C11.6373 27.9136 11.55 27.8227 11.55 27.7188H10.95C10.95 28.16 11.3119 28.5136 11.75 28.5136V27.9136ZM11.95 27.7188C11.95 27.8227 11.8627 27.9136 11.75 27.9136V28.5136C12.1881 28.5136 12.55 28.16 12.55 27.7188H11.95ZM11.75 27.524C11.8627 27.524 11.95 27.6149 11.95 27.7188H12.55C12.55 27.2776 12.1881 26.924 11.75 26.924V27.524ZM11.55 27.7188C11.55 27.6149 11.6373 27.524 11.75 27.524V26.924C11.3119 26.924 10.95 27.2776 10.95 27.7188H11.55Z" fill="#222532"/>
<path d="M17.25 24.9974H32.75V26.4818H17.25V24.9974Z" fill="white" stroke="#222532" stroke-width="0.6"/>
</svg>
