<svg width="621" height="139" viewBox="0 0 621 139" fill="none" xmlns="http://www.w3.org/2000/svg">
<path opacity="0.02" d="M60.8 -1.04904e-05L57 28.2H24.2V139H-12.8V28.2H-47.6V-1.04904e-05H60.8ZM118.375 87.8H108.175V139H71.175V-1.04904e-05H119.375C138.975 -1.04904e-05 153.575 3.53333 163.175 10.6C172.908 17.6667 177.775 28.5333 177.775 43.2C177.775 52 175.708 59.3333 171.575 65.2C167.575 71.0667 161.108 76.3333 152.175 81L186.775 139H145.575L118.375 87.8ZM108.175 62.6H120.575C133.375 62.6 139.775 56.1333 139.775 43.2C139.775 37.2 137.975 32.8 134.375 30C130.908 27.2 125.642 25.8 118.575 25.8H108.175V62.6ZM268.198 139L261.998 110.6H225.198L218.998 139H180.598L221.798 -1.04904e-05H266.198L307.398 139H268.198ZM230.998 84.2H256.198L243.598 26.4L230.998 84.2ZM418.628 -1.04904e-05L381.828 139H334.628L296.028 -1.04904e-05H335.028L358.828 112L380.828 -1.04904e-05H418.628ZM513.867 -1.04904e-05L510.067 26.2H462.667V55.8H504.067V81.2H462.667V112.8H513.267V139H425.667V-1.04904e-05H513.867ZM567.355 -1.04904e-05V110.2H620.755L616.755 139H530.355V-1.04904e-05H567.355Z" fill="white"/>
</svg>
